<?xml version="1.0" encoding="UTF-8" standalone="no"?>
<!DOCTYPE svg PUBLIC "-//W3C//DTD SVG 1.1//EN" "http://www.w3.org/Graphics/SVG/1.1/DTD/svg11.dtd">
<svg width="100%" height="100%" viewBox="0 0 3125 2084" version="1.1" xmlns="http://www.w3.org/2000/svg" xmlns:xlink="http://www.w3.org/1999/xlink" xml:space="preserve" xmlns:serif="http://www.serif.com/" style="fill-rule:evenodd;clip-rule:evenodd;stroke-linejoin:round;stroke-miterlimit:2;">
    <g transform="matrix(4.16667,0,0,4.16667,0,0)">
        <rect x="0" y="0" width="750" height="500" style="fill:white;fill-rule:nonzero;"/>
        <path d="M664.618,431.848C662.663,435.82 660.106,439.434 656.989,442.466L83.85,442.466C81.652,435.978 81.188,428.783 82.508,422.317C86.618,402.327 102.362,387.715 115.622,373.313C122.172,366.192 128.511,358.722 133.129,350.164C137.683,341.732 140.271,332.403 141.265,322.883C143.336,302.988 139.152,283.051 135.412,263.599C129.104,230.75 124.423,187.515 156.215,165.792C170.289,156.177 187.669,153.324 204.131,150.514C220.455,147.724 237.202,145.02 251.888,136.905C267.821,128.093 280.215,114.421 293.718,102.492C308.331,89.571 324.697,79.924 344.18,76.765C363.093,73.701 382.998,76.427 400.115,85.144C416.682,93.586 430.048,106.792 444.734,117.939C451.834,123.328 459.314,128.315 467.482,131.95C476.548,135.986 486.289,138.194 496.137,139.25C516.085,141.396 536.106,139.039 556.097,139.684C573.984,140.254 592.855,143.128 608.06,153.197C623.876,163.679 632.107,180.975 634.78,199.328C640.612,239.583 621.309,280.145 632.477,319.956C638.14,340.158 651.094,357.085 660.074,375.786C668.442,393.209 673.609,413.622 664.618,431.848Z" style="fill:rgb(170,0,73);fill-rule:nonzero;"/>
        <g transform="matrix(1.00042,0,0,1,-0.0350721,-0.24)">
            <path d="M656.51,442.466C656.51,458.475 528.283,471.453 370.108,471.453C211.933,471.453 83.706,458.475 83.706,442.466L656.51,442.466Z" style="fill:rgb(170,0,73);fill-rule:nonzero;"/>
        </g>
        <path d="M464.191,287.063C459.079,291.621 449.135,291.588 445.075,285.536C442.28,281.369 443.661,276.088 446.685,272.463C449.937,268.563 454.869,266.834 459.794,266.35C462.925,266.041 466.122,266.047 469.337,266.263C470.888,273.566 469.942,281.937 464.191,287.063ZM265.671,242.369C264.623,237.364 265.844,231.758 268.98,227.699C270.461,225.783 272.403,224.204 274.698,223.379C275.567,223.066 277.017,222.484 277.729,223.097C278.512,223.771 278.343,227.244 278.337,228.292C278.304,234.324 275.758,240.189 271.901,244.759C270.769,246.1 269.538,247.294 268.231,248.359C267.026,246.536 266.124,244.531 265.671,242.369ZM656.244,253.846C646.645,275.976 622.947,288.273 599.821,290.607C570.168,293.601 541.487,283.103 513.526,274.824C499.726,270.737 485.716,267.071 471.357,265.638C471.009,265.604 470.654,265.57 470.298,265.539C466.571,248.18 448.632,236.467 432.031,232.83C406.278,227.189 380.69,238.476 357.347,248.034C343.797,253.582 329.958,258.953 315.406,261.16C302.581,263.104 287.896,262.932 276.461,256.021C273.576,254.278 270.85,251.967 268.816,249.197C276.669,242.727 281.213,232.165 278.488,222.078C278.431,221.866 278.193,221.724 277.982,221.737C271.962,222.116 267.521,226.528 265.521,232.012C263.414,237.792 264.183,243.898 267.46,248.94C258.687,255.595 246.667,256.533 236.018,253.69C222.888,250.186 212.088,241.252 202.712,231.775C183.833,212.694 167.796,190.678 155.081,167.055C151.873,161.093 148.887,155.017 146.104,148.845C145.842,148.265 144.891,148.575 145.156,149.163C157.131,175.718 173.062,200.413 192.405,222.201C201.796,232.779 211.936,243.504 224.572,250.205C236.262,256.404 251.031,258.822 263.294,252.78C264.973,251.953 266.567,250.951 268.054,249.807C268.24,250.063 268.426,250.32 268.626,250.57C279.693,264.42 301.518,264.556 317.348,261.854C337.864,258.354 356.601,248.957 375.908,241.666C393.698,234.949 413.156,229.611 432.175,233.887C447.608,237.357 462.848,246.942 468.285,262.462C468.622,263.423 468.914,264.424 469.16,265.447C459.313,264.715 447.085,265.665 443.254,276.384C440.156,285.049 447.733,291.63 456.011,291.261C465.774,290.825 470.872,281.598 471.006,272.667C471.038,270.487 470.842,268.383 470.461,266.351C477.418,266.922 484.432,268.428 491.011,269.889C511.805,274.507 531.781,282.104 552.473,287.11C571.746,291.773 592.291,294.39 611.804,289.56C627.279,285.729 642.225,277.227 651.613,264.095C653.803,261.033 655.637,257.757 657.134,254.304C657.39,253.715 656.501,253.255 656.244,253.846Z" style="fill:white;fill-rule:nonzero;"/>
        <path d="M399.639,157.595C398.66,155.521 397.923,153.109 398.387,150.803C398.821,148.644 400.473,147.098 402.688,146.983C404.623,146.883 406.673,147.775 407.841,149.337C409.225,151.188 409.267,153.726 408.56,155.848C407.791,158.16 406.131,160 404.066,161.246C403.542,161.563 402.998,161.841 402.439,162.09C401.344,160.7 400.393,159.19 399.639,157.595ZM494.05,95.161C493.992,94.522 492.993,94.581 493.051,95.224C493.846,104.066 492.837,112.996 490.279,121.49C487.711,130.021 483.594,138.101 478.255,145.231C472.94,152.329 466.408,158.522 458.936,163.305C450.52,168.691 440.706,172.5 430.687,173.199C420.706,173.895 410.348,170.949 403.497,163.349C403.355,163.191 403.226,163.022 403.088,162.862C406.707,161.161 409.632,158.079 409.978,153.883C410.151,151.788 409.571,149.609 408.073,148.085C406.743,146.731 404.811,145.969 402.92,145.978C400.99,145.987 399.223,146.902 398.199,148.552C397.003,150.48 397.099,152.918 397.635,155.041C398.311,157.72 399.704,160.235 401.447,162.466C397.643,163.866 393.256,163.937 389.348,163.403C379.374,162.042 370.398,156.237 363.737,148.875C356.513,140.889 351.633,131.126 347.27,121.373C342.824,111.434 338.799,101.233 332.997,91.977C331.595,89.739 330.088,87.57 328.467,85.486C328.074,84.981 327.234,85.524 327.63,86.033C334.8,95.251 339.46,106.024 344.102,116.652C348.613,126.98 353.261,137.452 360.304,146.35C366.775,154.525 375.509,161.276 385.787,163.749C390.674,164.925 396.061,165.162 400.914,163.7C401.318,163.578 401.716,163.435 402.11,163.281C403.149,164.507 404.282,165.643 405.463,166.645C409.145,169.77 413.582,171.981 418.255,173.177C429.222,175.981 441.072,173.351 451.155,168.699C459.576,164.814 467.151,159.216 473.493,152.461C479.874,145.665 485.028,137.697 488.611,129.09C492.176,120.533 494.198,111.332 494.318,102.053C494.348,99.752 494.255,97.453 494.05,95.161Z" style="fill:white;fill-rule:nonzero;"/>
        <path d="M596.868,350.857C599.937,352.236 602.744,354.458 604.514,357.347C605.224,358.507 606.382,360.723 606.262,362.172C606.157,363.434 605.72,363.381 604.481,363.576C603.53,363.727 602.498,363.571 601.552,363.409C594.628,362.223 589.132,355.829 587.776,349.095C590.891,349.07 593.965,349.554 596.868,350.857ZM384.871,366.139C381.777,360.938 382.814,352.627 389.104,350.174C392.452,348.868 395.856,350.592 397.745,353.436C400.021,356.863 399.743,361.186 398.068,364.788C396.599,367.951 394.432,370.693 391.841,373.056C389.057,371.227 386.576,369.003 384.871,366.139ZM213.981,383.389C217.037,391.03 206.735,393.564 201.957,389.565C197.448,385.791 197.986,379.389 199.907,374.016C205.445,375.593 211.833,378.016 213.981,383.389ZM635.629,315.527C618.702,316.523 598.048,318.546 589.161,335.417C587.035,339.454 586.132,343.895 586.691,348.195C585.814,348.208 584.949,348.259 584.105,348.355C577.525,349.102 571.127,351.347 564.861,353.387C557.83,355.677 550.864,358.159 543.919,360.693C516.862,370.569 489.728,381.464 460.895,384.758C447.371,386.303 433.59,386.238 420.204,383.598C413.292,382.233 406.507,380.175 400.054,377.337C397.549,376.235 394.95,375.008 392.543,373.509C396.48,369.91 400.131,365.225 400.404,359.741C400.624,355.324 398.13,350.352 393.663,349.033C389.26,347.734 385.229,350.72 383.353,354.556C381.19,358.978 381.923,363.764 384.703,367.723C386.402,370.143 388.631,372.089 391.09,373.734C384.832,379.09 376.312,382.306 368.679,383.565C318.707,391.812 281.787,338.871 231.859,348.713C222.649,350.528 213.629,354.475 206.943,361.203C203.988,364.178 201.002,368.295 199.19,372.735C197.439,372.253 195.679,371.834 193.961,371.436C153.023,361.929 107.148,378.463 81.299,411.505C78.246,415.407 75.501,419.533 73.046,423.837C72.727,424.396 73.618,424.852 73.936,424.294C97.632,382.737 150.587,360.937 196.762,373.16C197.417,373.334 198.107,373.517 198.814,373.71C197.095,378.425 196.77,383.433 199.246,387.779C202.712,393.864 215.106,394.857 215.452,386.03C215.619,381.758 211.909,378.497 208.567,376.49C206.028,374.964 203.181,373.901 200.277,373.048C200.857,371.587 201.522,370.217 202.203,369.03C204.973,364.205 208.932,360.162 213.541,357.07C223.072,350.678 234.926,348.255 246.27,348.482C259.959,348.756 272.919,353.561 285.189,359.301C309.227,370.545 332.336,385.981 359.918,385.364C371.318,385.108 382.851,381.907 391.607,374.342C391.665,374.292 391.724,374.238 391.782,374.187C394.272,375.771 396.967,377.072 399.597,378.227C405.837,380.968 412.381,383.002 419.053,384.385C447.985,390.38 477.797,384.433 505.446,375.48C520.521,370.6 535.284,364.825 550.197,359.484C557.648,356.816 565.139,354.242 572.721,351.967C577.176,350.63 582.04,349.313 586.841,349.123C587.266,351.478 588.13,353.777 589.495,355.932C593.256,361.862 599.93,365.725 607.008,364.189C607.227,364.143 607.353,363.889 607.348,363.685C607.118,353.205 596.895,348.375 587.616,348.198C585.42,333.466 600.278,322.785 612.729,319.44C620.208,317.432 627.996,316.978 635.692,316.525C636.334,316.487 636.273,315.489 635.629,315.527Z" style="fill:white;fill-rule:nonzero;"/>
        <path d="M211.935,302.351C206.854,331.689 190.708,358.969 167.438,377.547C174.972,356.857 180.849,335.569 184.987,313.95C187.19,302.488 189.071,290.501 195.741,280.913C197.979,277.702 201.486,274.562 205.326,275.361C208.561,276.045 210.589,279.281 211.602,282.425C213.658,288.814 213.08,295.74 211.935,302.351Z" style="fill:rgb(66,192,185);fill-rule:nonzero;"/>
        <path d="M168.089,375.386L167.604,375.28C164.874,356.88 159.634,338.859 152.086,321.868C146.652,309.631 140.019,297.936 135.054,285.505C130.082,273.073 126.786,259.604 128.438,246.323C129.215,240.03 132.025,232.936 138.148,231.315C142.772,230.093 147.559,232.522 151.365,235.397C167.069,247.278 174.552,267.323 176.974,286.865C180.643,316.442 174.528,346.27 168.089,375.386Z" style="fill:rgb(66,192,185);fill-rule:nonzero;"/>
        <path d="M145.935,324.686C155.905,340.301 163.21,357.616 167.438,375.651L166.53,376.049C160.392,362.831 149.159,352.619 137.602,343.678C125.672,334.436 112.924,325.974 103.133,314.498C101.271,312.319 99.504,309.995 98.532,307.298C97.569,304.609 97.496,301.467 98.945,298.997C100.477,296.373 103.514,294.874 106.542,294.607C109.572,294.34 112.601,295.149 115.427,296.251C128.595,301.402 138.331,312.765 145.935,324.686Z" style="fill:rgb(66,192,185);fill-rule:nonzero;"/>
        <path d="M196.633,442.734L144.287,442.734L129.343,361.395L211.578,361.395L196.633,442.734Z" style="fill:rgb(255,204,0);fill-rule:nonzero;"/>
        <path d="M159.057,359.066C154.623,350.298 149.223,342.027 142.995,334.428C136.812,326.883 129.83,319.993 122.187,313.931C117.898,310.53 113.403,307.392 108.734,304.536C108.323,304.285 107.984,304.951 108.392,305.201C116.704,310.284 124.446,316.281 131.467,323.036C138.488,329.79 144.781,337.296 150.2,345.394C153.227,349.915 155.976,354.62 158.432,359.476C158.648,359.904 159.272,359.491 159.057,359.066Z" style="fill:rgb(17,23,50);fill-rule:nonzero;"/>
        <path d="M165.558,337.439C164.942,330.119 164.186,322.808 163.146,315.534C162.157,308.611 160.911,301.721 159.294,294.916C157.731,288.336 155.823,281.833 153.478,275.488C151.15,269.189 148.389,263.045 145.13,257.172C144.718,256.43 144.298,255.692 143.872,254.96C143.629,254.543 143.004,254.954 143.246,255.369C146.644,261.201 149.532,267.317 151.969,273.61C154.389,279.858 156.371,286.271 158.003,292.767C159.691,299.487 161,306.299 162.042,313.148C163.14,320.378 163.944,327.649 164.591,334.932C165.235,342.187 165.725,349.456 166.196,356.725C166.256,357.645 166.315,358.566 166.375,359.487C166.406,359.967 167.152,359.922 167.121,359.44C166.647,352.103 166.173,344.766 165.558,337.439Z" style="fill:rgb(17,23,50);fill-rule:nonzero;"/>
        <path d="M199.185,314.797C199.217,314.785 199.249,314.777 199.28,314.754C202.668,312.324 205.83,309.588 208.719,306.582C209.053,306.234 208.498,305.734 208.165,306.081C205.483,308.87 202.562,311.411 199.443,313.698C200.229,310.425 200.926,307.13 201.517,303.814C202.505,298.278 203.217,292.694 203.655,287.088C203.692,286.615 202.961,286.457 202.924,286.936C202.228,295.849 200.825,304.703 198.751,313.398C197.557,309.94 196.183,306.548 194.616,303.241C194.413,302.812 193.702,303.044 193.908,303.478C195.631,307.115 197.133,310.853 198.404,314.672C198.41,314.688 198.421,314.697 198.428,314.712C198.29,315.27 198.159,315.831 198.015,316.389C196.513,322.22 194.7,327.97 192.597,333.611C191.531,329.825 190.351,326.071 189.05,322.359C188.891,321.906 188.181,322.142 188.341,322.597C189.709,326.5 190.948,330.447 192.055,334.433C192.084,334.535 192.143,334.598 192.212,334.637C190.933,338.004 189.551,341.332 188.062,344.612C187.282,346.33 186.463,348.029 185.626,349.72C184.79,346.875 183.954,344.029 183.118,341.184C182.982,340.722 182.273,340.959 182.409,341.421C183.318,344.515 184.227,347.607 185.137,350.701C183.623,353.713 182.03,356.686 180.341,359.603C180.1,360.02 180.766,360.36 181.006,359.945C182.615,357.167 184.138,354.34 185.585,351.475C187.233,351.3 188.852,350.901 190.388,350.281C190.831,350.102 190.598,349.392 190.15,349.572C188.816,350.111 187.423,350.474 185.999,350.665C188.569,345.511 190.88,340.228 192.923,334.844C192.931,334.843 192.938,334.846 192.946,334.844C195.568,334.311 198.092,333.41 200.467,332.181C200.895,331.96 200.482,331.336 200.058,331.556C197.903,332.671 195.605,333.482 193.238,334.009C193.396,333.586 193.561,333.166 193.716,332.742C195.859,326.863 197.687,320.871 199.185,314.797Z" style="fill:rgb(17,23,50);fill-rule:nonzero;"/>
        <path d="M164.033,264.679C161.829,271.299 159.101,277.738 155.894,283.935C150.917,280.025 145.648,276.496 140.131,273.398C139.71,273.162 139.371,273.828 139.789,274.063C145.388,277.206 150.732,280.787 155.767,284.772C156.004,284.961 156.292,284.809 156.376,284.596C156.395,284.573 156.416,284.557 156.431,284.528C159.726,278.194 162.509,271.605 164.765,264.832C164.916,264.376 164.184,264.228 164.033,264.679Z" style="fill:rgb(17,23,50);fill-rule:nonzero;"/>
        <path d="M171.164,296.046L162.15,310.26C158.167,306.817 153.937,303.666 149.494,300.841C149.087,300.583 148.75,301.25 149.152,301.506C153.669,304.378 157.963,307.59 161.998,311.107C162.235,311.313 162.526,311.148 162.602,310.922C162.611,310.91 162.623,310.904 162.631,310.892C165.697,306.057 168.763,301.223 171.829,296.388C172.086,295.981 171.419,295.643 171.164,296.046Z" style="fill:rgb(17,23,50);fill-rule:nonzero;"/>
        <path d="M172.404,328.206C170.218,331.836 167.879,335.371 165.393,338.804C163.301,337.202 161.339,335.436 159.537,333.515C159.207,333.163 158.708,333.721 159.036,334.069C160.925,336.083 162.984,337.932 165.19,339.593C165.301,339.676 165.419,339.684 165.526,339.653C165.621,339.66 165.718,339.625 165.796,339.519C168.376,335.968 170.804,332.309 173.069,328.548C173.317,328.135 172.651,327.796 172.404,328.206Z" style="fill:rgb(17,23,50);fill-rule:nonzero;"/>
        <path d="M127.578,318.535C127.592,318.477 127.596,318.412 127.573,318.34C126.351,314.46 125.128,310.581 123.905,306.701C123.761,306.242 123.052,306.478 123.197,306.938C124.419,310.818 125.642,314.697 126.864,318.577C126.875,318.613 126.896,318.637 126.913,318.664C123.317,319.501 119.722,320.337 116.126,321.173C115.658,321.281 115.897,321.99 116.363,321.882C120.138,321.004 123.913,320.126 127.688,319.248C128.11,319.15 127.954,318.569 127.578,318.535Z" style="fill:rgb(17,23,50);fill-rule:nonzero;"/>
        <path d="M141.55,332.772C141.211,328.34 140.468,323.945 139.336,319.645C139.214,319.181 138.506,319.419 138.628,319.883C139.725,324.053 140.441,328.311 140.783,332.608C137.293,333.135 133.772,333.43 130.243,333.48C129.761,333.487 129.809,334.233 130.289,334.227C133.941,334.174 137.583,333.865 141.192,333.304C141.394,333.272 141.496,333.117 141.515,332.955C141.54,332.903 141.556,332.845 141.55,332.772Z" style="fill:rgb(17,23,50);fill-rule:nonzero;"/>
        <path d="M152.172,346.73C152.173,346.722 152.177,346.716 152.177,346.708C152.195,344.33 152.214,341.953 152.232,339.576C152.236,339.096 151.49,339.144 151.487,339.623C151.468,341.965 151.45,344.306 151.432,346.647C149.594,346.694 147.754,346.651 145.922,346.499C145.449,346.46 145.291,347.191 145.769,347.23C147.83,347.401 149.896,347.455 151.962,347.383C152.333,347.37 152.387,346.926 152.172,346.73Z" style="fill:rgb(17,23,50);fill-rule:nonzero;"/>
        <path d="M363.561,88.429C346.482,88.429 332.587,98.677 332.587,111.273C332.587,121.264 341.249,130.012 354.142,133.042C354.334,133.087 354.482,133.241 354.519,133.436C354.555,133.629 354.474,133.827 354.311,133.939L344.996,140.378L368.104,133.884C383.208,132.209 394.538,122.496 394.538,111.273C394.538,98.677 380.642,88.429 363.561,88.429ZM342.247,142.17C342.057,142.17 341.878,142.062 341.794,141.883C341.69,141.662 341.762,141.397 341.963,141.259L352.833,133.746C340.079,130.379 331.587,121.453 331.587,111.273C331.587,98.126 345.931,87.429 363.561,87.429C381.193,87.429 395.538,98.126 395.538,111.273C395.538,123.006 383.826,133.147 368.294,134.863L342.382,142.151C342.337,142.164 342.292,142.17 342.247,142.17Z" style="fill:rgb(17,23,50);fill-rule:nonzero;"/>
        <path d="M464.654,73.184C442.287,73.184 424.091,86.622 424.091,103.139C424.091,117.857 438.93,130.596 458.606,132.77C458.648,132.775 458.689,132.785 458.728,132.799L493.173,145.792L476.492,132.638C476.341,132.519 476.271,132.324 476.313,132.136C476.356,131.948 476.502,131.801 476.689,131.758C493.753,127.841 505.218,116.339 505.218,103.139C505.218,86.622 487.021,73.184 464.654,73.184ZM496.02,147.9C495.962,147.9 495.902,147.89 495.844,147.868L458.434,133.757C438.28,131.507 423.091,118.353 423.091,103.139C423.091,86.07 441.736,72.184 464.654,72.184C487.572,72.184 506.218,86.07 506.218,103.139C506.218,116.552 494.891,128.25 477.921,132.491L496.33,147.007C496.523,147.16 496.577,147.431 496.456,147.646C496.365,147.807 496.196,147.9 496.02,147.9Z" style="fill:rgb(17,23,50);fill-rule:nonzero;"/>
        <path d="M335.443,63.209L430.934,63.209L430.934,39.609L335.443,39.609L335.443,63.209ZM433.922,66.198L332.454,66.198L332.454,36.621L433.922,36.621L433.922,66.198Z" style="fill:rgb(17,23,50);fill-rule:nonzero;"/>
        <path d="M356.452,44.599C355.128,43.184 353.166,42.477 350.566,42.477C347.987,42.477 346.003,43.184 344.657,44.622C343.31,46.059 342.626,48.112 342.626,50.827C342.626,53.565 343.31,55.664 344.657,57.101C346.025,58.538 347.987,59.246 350.543,59.246C353.144,59.246 355.106,58.538 356.452,57.101C357.798,55.687 358.459,53.588 358.459,50.85C358.459,48.112 357.798,46.013 356.452,44.599ZM350.566,46.082C351.661,46.082 352.459,46.47 353.007,47.245C353.554,48.021 353.828,49.23 353.828,50.85C353.828,52.47 353.554,53.656 353.029,54.432C352.482,55.185 351.661,55.573 350.543,55.573C348.352,55.573 347.257,53.998 347.257,50.85C347.257,47.679 348.352,46.082 350.566,46.082Z" style="fill:rgb(28,169,213);fill-rule:nonzero;"/>
        <path d="M376.914,42.728L372.99,42.728L372.99,50.097C372.99,51.078 373.035,52.401 373.149,54.044L373.081,54.044L367.149,42.728L361.4,42.728L361.4,59.018L365.301,59.018L365.301,51.671C365.301,50.713 365.233,49.344 365.096,47.542L365.187,47.542L371.142,59.018L376.914,59.018L376.914,42.728Z" style="fill:rgb(28,169,213);fill-rule:nonzero;"/>
        <path d="M401.16,59.018L395.776,42.66L389.912,42.66L384.596,59.018L389.433,59.018L390.254,55.96L395.547,55.96L396.346,59.018L401.16,59.018ZM391.167,52.356C391.851,49.801 392.285,48.089 392.467,47.222C392.673,46.356 392.81,45.717 392.878,45.352C392.947,45.762 393.106,46.424 393.334,47.382C393.563,48.318 393.768,49.093 393.928,49.686L394.635,52.356L391.167,52.356Z" style="fill:rgb(28,169,213);fill-rule:nonzero;"/>
        <rect x="402.919" y="42.728" width="4.426" height="16.29" style="fill:rgb(28,169,213);fill-rule:nonzero;"/>
        <path d="M416.382,53.086L419.827,59.018L424.823,59.018L420.078,51.922C421.926,50.873 422.839,49.435 422.839,47.542C422.839,44.325 420.626,42.728 416.2,42.728L410.861,42.728L410.861,59.018L415.264,59.018L415.264,53.086L416.382,53.086ZM415.264,46.059L416.131,46.059C417.637,46.059 418.39,46.629 418.39,47.747C418.39,49.093 417.637,49.778 416.085,49.778L415.264,49.778L415.264,46.059Z" style="fill:rgb(28,169,213);fill-rule:nonzero;"/>
        <path d="M314.956,319.135L335.622,442.734L329.399,442.734L295.737,319.135L314.956,319.135Z" style="fill:rgb(62,77,95);fill-rule:nonzero;"/>
        <path d="M215.091,319.135L194.426,442.734L200.649,442.734L234.311,319.135L215.091,319.135Z" style="fill:rgb(62,77,95);fill-rule:nonzero;"/>
        <path d="M201.223,280.524L194.657,213.37C193.53,201.844 202.586,191.859 214.166,191.859L256.79,191.859C266.63,191.859 274.945,199.153 276.226,208.909L285.047,276.063C286.588,287.803 277.451,298.219 265.611,298.219L220.732,298.219C210.645,298.219 202.205,290.563 201.223,280.524Z" style="fill:rgb(255,204,0);fill-rule:nonzero;"/>
        <path d="M237.265,111.647C237.407,111.401 237.557,111.154 237.706,110.908C238.05,110.362 238.416,109.825 238.805,109.309C243.124,103.458 249.923,99.513 257.134,98.445C262.835,97.608 268.686,98.475 274.2,100.163C279.715,101.852 284.945,104.347 290.146,106.828C291.005,107.239 291.917,107.695 292.395,108.509C293.008,109.556 292.754,110.871 292.433,112.036C291.29,116.153 289.458,120.084 287.03,123.603L286.903,123.618C286.23,118.32 284.714,113.187 282.151,108.517C279.177,114.397 274.596,119.456 269.03,122.991C263.538,126.473 257.111,128.46 250.61,128.685C250.035,127.683 248.915,126.988 247.756,126.883C246.269,126.742 244.782,127.466 243.803,128.587C242.825,129.708 242.316,131.188 242.174,132.667C242.04,134.154 242.249,135.648 242.563,137.105C243.108,139.639 244.147,142.306 246.299,143.696L245.515,148.934C242.466,143.718 238.08,139.288 235.711,133.728C232.715,126.682 233.432,118.268 237.265,111.647Z" style="fill:rgb(17,23,50);fill-rule:nonzero;"/>
        <path d="M235.758,114.732C235.758,114.732 227.521,136.807 229.097,154.042C229.097,154.042 235.282,152.387 250.112,161.271C264.73,170.027 285.297,164.514 290.95,156.591C290.95,156.591 280.413,150.261 287.03,123.603C287.03,123.603 283.595,107.896 281.712,107.71C279.83,107.525 235.758,114.732 235.758,114.732Z" style="fill:rgb(17,23,50);fill-rule:nonzero;"/>
        <path d="M286.395,141.118C285.386,146.969 283.384,153.119 278.586,156.608C275.799,158.633 272.28,159.537 268.835,159.38L269.829,166.979C269.829,166.979 274.679,176.768 261.571,178.3C248.458,179.832 242.854,166.598 242.854,166.598L245.515,148.934L246.299,143.696C244.147,142.306 243.108,139.639 242.563,137.105C242.249,135.648 242.04,134.154 242.174,132.667C242.316,131.188 242.825,129.708 243.803,128.587C244.782,127.466 246.269,126.742 247.756,126.883C248.915,126.988 250.035,127.683 250.61,128.685C257.111,128.46 263.538,126.473 269.03,122.991C274.597,119.456 279.177,114.397 282.151,108.517C284.714,113.187 286.23,118.32 286.903,123.618C287.643,129.402 287.381,135.372 286.395,141.118Z" style="fill:rgb(247,170,171);fill-rule:nonzero;"/>
        <path d="M268.607,159.209C262.998,159.349 257.452,156.654 254.102,152.151C253.815,151.767 253.188,152.173 253.477,152.56C256.991,157.283 262.767,160.102 268.654,159.956C269.135,159.943 269.088,159.198 268.607,159.209Z" style="fill:rgb(17,23,50);fill-rule:nonzero;"/>
        <path d="M279.591,141.674C279.202,137.377 278.813,133.081 278.425,128.784C278.382,128.306 277.636,128.35 277.679,128.831C278.063,133.084 278.448,137.338 278.833,141.592C277.359,142.059 275.853,142.407 274.32,142.62C273.848,142.686 273.89,143.432 274.368,143.366C276.021,143.136 277.651,142.764 279.238,142.25C279.391,142.201 279.461,142.087 279.477,141.966C279.553,141.901 279.603,141.806 279.591,141.674Z" style="fill:rgb(17,23,50);fill-rule:nonzero;"/>
        <path d="M263.441,139.366C263.441,142.343 261.027,144.756 258.049,144.756C255.073,144.756 252.66,142.343 252.66,139.366C252.66,136.389 255.073,133.976 258.049,133.976C261.027,133.976 263.441,136.389 263.441,139.366Z" style="fill:rgb(246,150,150);fill-rule:nonzero;"/>
        <path d="M268.818,149.045C267.552,151.554 265.093,152.866 263.327,151.974C261.56,151.083 261.153,148.326 262.42,145.816C263.687,143.307 266.146,141.996 267.913,142.887C269.679,143.779 270.085,146.536 268.818,149.045Z" style="fill:rgb(246,150,150);fill-rule:nonzero;"/>
        <path d="M261.482,141.746L272.183,148.359C272.183,148.359 267.782,152.895 263.597,149.913C259.405,146.939 261.482,141.746 261.482,141.746Z" style="fill:white;fill-rule:nonzero;"/>
        <path d="M271.829,129.828C271.829,131.453 270.759,132.77 269.439,132.77C268.121,132.77 267.051,131.453 267.051,129.828C267.051,128.203 268.121,126.886 269.439,126.886C270.759,126.886 271.829,128.203 271.829,129.828Z" style="fill:rgb(17,23,50);fill-rule:nonzero;"/>
        <path d="M286.49,129.828C286.49,131.453 285.421,132.77 284.102,132.77C282.782,132.77 281.712,131.453 281.712,129.828C281.712,128.203 282.782,126.886 284.102,126.886C285.421,126.886 286.49,128.203 286.49,129.828Z" style="fill:rgb(17,23,50);fill-rule:nonzero;"/>
        <path d="M286.267,121.781C284.796,121.571 283.302,121.482 281.817,121.53C281.035,121.555 280.335,122.331 280.419,123.116C280.508,123.941 281.167,124.541 282.005,124.514C282.751,124.49 283.497,124.506 284.241,124.552C284.714,124.591 285.186,124.64 285.655,124.707C286.051,124.763 286.438,124.717 286.779,124.494C287.086,124.293 287.364,123.917 287.424,123.549C287.547,122.792 287.096,121.899 286.267,121.781Z" style="fill:rgb(17,23,50);fill-rule:nonzero;"/>
        <path d="M267.753,121.781C269.224,121.571 270.717,121.482 272.202,121.53C272.984,121.555 273.685,122.331 273.6,123.116C273.511,123.941 272.852,124.541 272.014,124.514C271.269,124.49 270.523,124.506 269.778,124.552C269.306,124.591 268.834,124.64 268.364,124.707C267.969,124.763 267.582,124.717 267.24,124.494C266.933,124.293 266.655,123.917 266.596,123.549C266.472,122.792 266.924,121.899 267.753,121.781Z" style="fill:rgb(17,23,50);fill-rule:nonzero;"/>
        <path d="M349.834,217.245L348.84,231.114L348.795,231.756L296.169,238.683L300.6,263.334C295.982,267.75 289.354,270.335 281.934,271.71L281.927,271.71C258.061,276.134 225.96,268.041 225.96,268.041C225.825,252.252 236.07,230.508 236.07,230.508C236.07,230.508 215.573,191.772 220.49,179.757C225.407,167.742 242.854,166.598 242.854,166.598C242.854,166.598 248.458,179.832 261.571,178.3C274.679,176.768 269.829,166.979 269.829,166.979C269.829,166.979 279.797,165.111 286.754,166.979C293.71,168.855 299.427,187.752 299.427,187.752L301.504,187.341L302.782,189.194L311.292,201.509L314.588,206.276L301.713,214.861L350.043,214.309L349.834,217.245Z" style="fill:rgb(28,169,213);fill-rule:nonzero;"/>
        <path d="M300.701,214.874C291.828,221.08 282.954,227.287 273.932,233.275C269.475,236.233 265.007,239.207 260.42,241.959C258.316,243.221 256.084,244.403 253.656,244.878C251.358,245.327 249.047,244.993 246.957,243.947C242.077,241.506 239.526,236.418 237.22,231.747C237.007,231.316 236.384,231.729 236.595,232.156C238.721,236.463 240.996,240.95 245.089,243.715C246.901,244.939 248.995,245.736 251.191,245.823C253.653,245.921 256.035,245.107 258.213,244.03C260.552,242.875 262.736,241.414 264.933,240.018C267.269,238.533 269.592,237.029 271.905,235.509C276.531,232.469 281.115,229.367 285.677,226.231C290.84,222.682 295.975,219.091 301.11,215.5C301.503,215.224 301.096,214.598 300.701,214.874Z" style="fill:rgb(17,23,50);fill-rule:nonzero;"/>
        <path d="M298.695,188.159C296.416,189.671 294.128,191.172 291.835,192.664C291.827,192.629 291.822,192.594 291.802,192.559C289.292,187.896 286.451,183.416 283.305,179.155C283.021,178.769 282.394,179.176 282.68,179.564C285.826,183.825 288.666,188.305 291.177,192.968C291.196,193.003 291.221,193.024 291.245,193.049C284.044,197.728 276.78,202.31 269.452,206.789C266.83,208.392 264.198,209.98 261.561,211.557C257.967,204.634 254.376,197.711 250.784,190.789C250.562,190.362 249.938,190.774 250.159,191.198C253.775,198.168 257.393,205.139 261.01,212.11C261.021,212.221 261.079,212.328 261.172,212.397C261.334,212.614 261.62,212.524 261.743,212.319C271.612,206.422 281.373,200.346 291.017,194.09C293.722,192.335 296.417,190.566 299.104,188.784C299.506,188.518 299.097,187.892 298.695,188.159Z" style="fill:rgb(17,23,50);fill-rule:nonzero;"/>
        <path d="M298.158,217.372C298.315,216.919 297.582,216.77 297.427,217.219C296.393,220.212 295.084,223.104 293.541,225.869C293.382,225.903 293.252,226.023 293.284,226.234C293.905,230.282 294.745,234.294 295.803,238.25C295.927,238.714 296.635,238.477 296.511,238.013C295.493,234.206 294.682,230.349 294.075,226.455C295.711,223.556 297.071,220.518 298.158,217.372Z" style="fill:rgb(17,23,50);fill-rule:nonzero;"/>
        <path d="M337.505,442.734L306.63,442.734L302.4,421.685L300.323,442.734L296.311,442.734L292.858,409.834L317.495,409.079L319.019,425.353C329.204,428.089 337.505,442.734 337.505,442.734Z" style="fill:rgb(24,170,215);fill-rule:nonzero;"/>
        <path d="M280.791,392.065L270.935,404.319C276.33,413.376 272.093,429.673 272.093,429.673L249.938,408.16L261.565,390.115L245.417,403.774L242.533,400.972L260.937,377.547L280.791,392.065Z" style="fill:rgb(24,170,215);fill-rule:nonzero;"/>
        <path d="M280.791,392.065L260.937,377.547L259.749,376.68L283.242,331.6L287.957,384.018L282.188,393.089L280.791,392.065Z" style="fill:rgb(17,23,50);fill-rule:nonzero;"/>
        <path d="M329.338,285.07C330.481,290.787 319.564,337.622 319.564,337.622L319.534,337.622C319.714,313.226 319.056,291.324 316.254,288.604C309.679,282.238 282.547,271.941 281.934,271.71C289.354,270.335 295.982,267.75 300.6,263.334C300.6,263.334 328.195,279.361 329.338,285.07Z" style="fill:rgb(17,23,50);fill-rule:nonzero;"/>
        <path d="M287.957,384.018L283.242,331.6L281.561,312.904C209.379,317.582 225.96,268.041 225.96,268.041C225.96,268.041 258.061,276.134 281.927,271.71L281.934,271.71C282.547,271.941 309.679,282.238 316.254,288.604C319.056,291.324 319.714,313.226 319.534,337.622C319.295,371.016 317.495,409.079 317.495,409.079L292.858,409.834L290.288,409.916L287.957,384.018Z" style="fill:rgb(17,23,50);fill-rule:nonzero;"/>
        <path d="M285.109,363.005C284.782,356.309 284.454,349.612 284.126,342.916C283.942,339.134 283.757,335.352 283.572,331.569C283.548,331.09 282.802,331.136 282.826,331.617C283.153,338.313 283.481,345.009 283.808,351.705C284.136,358.401 284.463,365.098 284.791,371.794C284.976,375.576 285.16,379.358 285.345,383.141C285.369,383.62 286.115,383.575 286.091,383.094C285.764,376.397 285.437,369.701 285.109,363.005Z" style="fill:white;fill-rule:nonzero;"/>
        <path d="M317.941,283.856C316.146,282.22 313.818,281.341 311.539,280.613C308.699,279.708 305.833,278.88 302.974,278.037C296.354,276.086 289.711,274.211 283.048,272.411C282.583,272.286 282.432,273.018 282.896,273.143C288.725,274.718 294.54,276.35 300.337,278.04C303.236,278.886 306.13,279.746 309.02,280.62C311.408,281.343 313.884,282.006 316.02,283.339C318.095,284.635 319.448,286.598 320.082,288.943C320.706,291.253 320.697,293.696 320.614,296.069C320.406,302.065 320.1,308.06 319.842,314.054C319.547,320.876 319.253,327.699 318.959,334.521C318.938,335 319.684,334.951 319.705,334.474L321.31,297.261C321.509,292.655 321.648,287.237 317.941,283.856Z" style="fill:white;fill-rule:nonzero;"/>
        <path d="M335.286,191.182L335.293,191.399C338.178,191.578 341.017,192.377 343.565,193.737C343.864,193.895 344.2,194.133 344.178,194.47C344.155,194.888 343.64,195.06 343.221,195.112C340.053,195.553 336.84,195.77 333.634,195.77L333.634,195.852C335.151,196.062 336.608,196.674 337.826,197.601C338.267,197.944 338.723,198.475 338.521,199.005C338.312,199.551 337.58,199.618 336.989,199.588C328.352,199.215 319.475,198.766 311.292,201.509L302.782,189.194C307.288,182.417 311.98,175.707 317.688,169.916C318.063,169.535 318.638,169.139 319.071,169.453C319.459,169.744 319.318,170.35 319.146,170.805C317.577,174.855 316.015,178.905 314.453,182.955L314.513,182.978C322.359,181.745 330.384,181.251 338.252,182.35C338.678,182.41 339.119,182.477 339.485,182.701C339.851,182.925 340.135,183.351 340.061,183.777C339.956,184.367 339.283,184.651 338.701,184.815C336.347,185.496 333.941,186.041 331.52,186.437L331.557,186.661C334.987,186.594 338.439,187.185 341.652,188.402C342.011,188.537 342.37,188.686 342.646,188.948C342.922,189.209 343.094,189.62 342.975,189.979C342.788,190.532 342.093,190.689 341.51,190.749C339.448,190.965 337.371,191.107 335.286,191.182Z" style="fill:rgb(247,170,171);fill-rule:nonzero;"/>
        <path d="M331.704,186.19L323.444,186.887C322.966,186.928 323.01,187.674 323.491,187.633L331.751,186.936C332.228,186.896 332.185,186.149 331.704,186.19Z" style="fill:rgb(17,23,50);fill-rule:nonzero;"/>
        <path d="M335.284,191.113C332.153,190.941 329.021,190.77 325.89,190.599C325.412,190.573 325.461,191.319 325.938,191.345C329.068,191.516 332.2,191.688 335.331,191.859C335.81,191.885 335.76,191.139 335.284,191.113Z" style="fill:rgb(17,23,50);fill-rule:nonzero;"/>
        <path d="M334.192,195.493C332.409,195.266 330.626,195.038 328.844,194.811C328.37,194.75 328.213,195.481 328.691,195.542C330.474,195.77 332.256,195.997 334.039,196.224C334.513,196.285 334.67,195.554 334.192,195.493Z" style="fill:rgb(17,23,50);fill-rule:nonzero;"/>
        <path d="M377.384,220.256C379.477,220.563 381.561,220.869 383.661,221.175C384.259,221.265 384.879,221.355 385.395,221.684C385.91,222.012 386.283,222.64 386.119,223.23C385.91,223.97 385.036,224.262 384.281,224.418C381.173,225.083 378.02,225.517 374.851,225.711C377.989,225.823 381.098,226.488 384.005,227.669C384.789,227.983 385.693,228.588 385.544,229.417C385.395,230.194 384.423,230.463 383.631,230.553C379.499,231.017 375.307,230.942 371.197,230.344C372.998,230.882 374.731,231.667 376.331,232.66C376.675,232.87 377.048,233.153 377.07,233.557C377.101,234.147 376.383,234.461 375.8,234.543C374.5,234.723 373.177,234.588 371.87,234.438C364.158,233.587 356.477,232.481 348.84,231.114L349.834,217.245C353.772,214.144 357.859,211.237 362.081,208.533C362.462,208.293 362.858,208.04 363.299,207.942C363.748,207.845 364.255,207.927 364.562,208.264C364.868,208.6 364.906,209.108 364.779,209.541C364.644,209.967 364.368,210.341 364.091,210.692C362.499,212.762 360.773,214.727 358.936,216.58C365.63,215.624 372.482,215.721 379.141,216.879C379.768,216.991 380.537,217.252 380.604,217.888C380.649,218.381 380.224,218.777 379.812,219.053C379.065,219.569 378.243,219.973 377.384,220.256Z" style="fill:rgb(247,170,171);fill-rule:nonzero;"/>
        <path d="M371.788,230.086C370.176,229.768 368.564,229.45 366.952,229.131C366.48,229.038 366.326,229.77 366.799,229.863C368.411,230.181 370.023,230.5 371.635,230.818C372.106,230.911 372.261,230.18 371.788,230.086Z" style="fill:rgb(17,23,50);fill-rule:nonzero;"/>
        <path d="M375.498,225.614C373.167,225.608 370.836,225.603 368.505,225.597C368.024,225.596 368.072,226.342 368.552,226.343C370.883,226.349 373.214,226.354 375.545,226.36C376.025,226.361 375.978,225.615 375.498,225.614Z" style="fill:rgb(17,23,50);fill-rule:nonzero;"/>
        <path d="M377.715,220.245C374.577,220.469 371.439,220.693 368.301,220.917C368.215,220.923 368.151,220.958 368.099,221.001C368.052,220.42 367.991,219.841 367.9,219.264C367.827,218.794 367.08,218.835 367.154,219.312C367.612,222.231 367.502,225.198 366.824,228.075C366.713,228.543 367.445,228.695 367.555,228.228C368.066,226.06 368.263,223.831 368.144,221.614C368.201,221.646 368.266,221.669 368.348,221.663C371.486,221.439 374.624,221.215 377.762,220.991C378.24,220.957 378.195,220.21 377.715,220.245Z" style="fill:rgb(17,23,50);fill-rule:nonzero;"/>
        <path d="M243.445,124.729L248.742,124.729C248.742,124.729 248.736,98.857 268.992,98.857C268.992,98.857 247.184,91.355 243.445,124.729Z" style="fill:rgb(150,168,176);fill-rule:nonzero;"/>
        <path d="M252.66,132.864C252.66,139.432 249.109,144.756 244.729,144.756C240.349,144.756 236.798,139.432 236.798,132.864C236.798,126.296 240.349,120.972 244.729,120.972C249.109,120.972 252.66,126.296 252.66,132.864Z" style="fill:rgb(24,170,215);fill-rule:nonzero;"/>
        <path d="M244.729,120.972C246.049,120.73 247.491,121.122 248.688,121.862C249.885,122.618 250.87,123.685 251.61,124.877C253.117,127.266 253.752,130.092 253.781,132.864C253.755,135.636 253.119,138.463 251.614,140.853C250.873,142.045 249.888,143.113 248.69,143.869C247.492,144.608 246.05,145 244.729,144.756C246.042,144.491 247.149,143.856 248.018,142.998C248.902,142.156 249.562,141.109 250.081,140.009C251.092,137.781 251.514,135.317 251.54,132.864C251.517,130.411 251.095,127.946 250.084,125.717C249.564,124.618 248.905,123.57 248.02,122.729C247.15,121.87 246.042,121.235 244.729,120.972Z" style="fill:rgb(150,168,176);fill-rule:nonzero;"/>
        <path d="M246.197,132.249C246.197,136.179 244.012,139.366 241.316,139.366C238.62,139.366 236.435,136.179 236.435,132.249C236.435,128.317 238.62,125.131 241.316,125.131C244.012,125.131 246.197,128.317 246.197,132.249Z" style="fill:rgb(150,168,176);fill-rule:nonzero;"/>
        <path d="M248.421,124.703C247.509,123.385 246.286,122.29 244.818,121.631C244.38,121.434 244.037,122.098 244.477,122.295C247.09,123.469 248.695,125.999 249.377,128.704C250.134,131.7 250.087,135.163 249.122,138.105C248.608,139.672 247.76,141.118 246.585,142.279C246.242,142.618 246.798,143.117 247.139,142.78C249.472,140.476 250.424,137.231 250.579,134.028C250.732,130.833 250.28,127.389 248.421,124.703Z" style="fill:rgb(17,23,50);fill-rule:nonzero;"/>
        <path d="M282.615,324.626L232.184,324.626C217.108,324.626 204.479,313.217 202.953,298.219L198.162,251.123C198.162,251.123 282.615,233.16 282.615,324.626Z" style="fill:rgb(255,204,0);fill-rule:nonzero;"/>
        <path d="M260.278,272.013C256.127,267.596 251.202,263.91 245.731,261.287C240.051,258.563 233.896,256.96 227.683,256.037C220.508,254.971 213.236,254.772 205.994,254.729C205.351,254.725 205.415,255.723 206.057,255.727C218.521,255.804 231.473,256.283 243.117,261.205C254.222,265.899 263.009,274.748 268.461,285.423C271.759,291.879 273.836,298.929 274.866,306.093C274.957,306.726 275.956,306.669 275.864,306.03C274.06,293.48 269.028,281.322 260.278,272.013Z" style="fill:rgb(17,23,50);fill-rule:nonzero;"/>
        <path d="M500.563,320.974L479.898,444.572L486.121,444.572L519.783,320.974L500.563,320.974Z" style="fill:rgb(62,77,95);fill-rule:nonzero;"/>
        <path d="M600.429,320.974L621.095,444.572L614.871,444.572L581.21,320.974L600.429,320.974Z" style="fill:rgb(62,77,95);fill-rule:nonzero;"/>
        <path d="M614.297,282.362L620.863,215.208C621.99,203.683 612.934,193.698 601.354,193.698L558.729,193.698C548.89,193.698 540.575,200.992 539.294,210.747L530.474,277.902C528.932,289.641 538.068,300.058 549.908,300.058L594.788,300.058C604.875,300.058 613.315,292.401 614.297,282.362Z" style="fill:rgb(255,204,0);fill-rule:nonzero;"/>
        <path d="M520.963,428.089L521.62,446.127L459.579,454.018C457.711,441.695 490.424,428.089 490.424,428.089L520.963,428.089Z" style="fill:rgb(17,23,50);fill-rule:nonzero;"/>
        <path d="M454.595,430.061L442.55,447.098L398.65,419.398C398.65,419.398 403.769,406.016 429.974,416.97L454.595,430.061Z" style="fill:rgb(17,23,50);fill-rule:nonzero;"/>
        <path d="M598.203,278.704C601.438,301.621 584.521,309.063 584.521,309.063L512.862,327.139L520.963,428.089L490.424,428.089C490.424,428.089 486.777,412.136 482.705,392.229L454.595,430.061L429.974,416.97L474.157,345.812C472.132,332.563 471.071,321.774 472.042,317.478C473.775,309.833 492.644,296.705 510.868,285.586L523.421,264.992C523.421,264.992 533.195,264.933 545.838,265.807L545.846,265.807C564.361,267.085 589.027,270.357 598.203,278.704Z" style="fill:rgb(24,170,215);fill-rule:nonzero;"/>
        <path d="M536.175,269.358L516.435,281.771L510.853,285.281C510.445,285.537 510.854,286.162 511.262,285.906L531.001,273.495L536.584,269.984C536.992,269.728 536.583,269.103 536.175,269.358Z" style="fill:rgb(17,23,50);fill-rule:nonzero;"/>
        <path d="M512.602,325.055C511.375,322.341 509.976,319.707 508.408,317.174C508.154,316.765 507.529,317.174 507.783,317.583C509.317,320.062 510.692,322.636 511.894,325.292C512.09,325.726 512.801,325.494 512.602,325.055Z" style="fill:rgb(17,23,50);fill-rule:nonzero;"/>
        <path d="M511.147,326.243C508.635,325.038 506.122,323.833 503.609,322.628C503.177,322.42 502.834,323.084 503.268,323.292L510.806,326.907C511.239,327.115 511.581,326.451 511.147,326.243Z" style="fill:rgb(17,23,50);fill-rule:nonzero;"/>
        <path d="M476.873,356.657C476.226,353.35 475.552,350.047 474.852,346.75C474.752,346.28 474.044,346.52 474.143,346.987C476.593,358.525 478.72,370.131 480.52,381.788C481.024,385.059 481.503,388.333 481.957,391.611C482.021,392.084 482.769,392.042 482.702,391.564C481.084,379.877 479.142,368.235 476.873,356.657Z" style="fill:rgb(17,23,50);fill-rule:nonzero;"/>
        <path d="M581.154,272.872C580.918,272.451 580.294,272.863 580.528,273.281C583.841,279.188 581.611,286.561 577.453,291.433C572.728,296.969 565.453,299.537 558.648,301.426C550.524,303.682 542.311,305.649 534.144,307.743C525.584,309.938 517.021,312.134 508.461,314.329C506.1,314.935 503.738,315.54 501.376,316.145C499.662,316.586 497.817,317.001 496.445,318.192C495.394,319.104 494.888,320.371 495.168,321.752C495.274,322.279 495.499,322.761 495.814,323.151C494.002,323.416 492.35,324.855 492.227,326.786C492.061,329.373 494.815,331.376 497.229,330.829C499.247,343.033 501.043,355.273 502.608,367.543C504.191,379.964 505.542,392.414 506.657,404.886C507.285,411.897 507.837,418.916 508.316,425.939C508.35,426.419 509.096,426.374 509.062,425.893C508.209,413.4 507.124,400.925 505.804,388.474C504.482,376.021 502.928,363.596 501.14,351.203C500.135,344.235 499.055,337.278 497.903,330.333C497.865,330.103 497.658,329.913 497.411,330.002C495.433,330.715 492.906,329.117 492.963,326.929C493.011,325.087 494.919,323.677 496.685,323.845C496.974,323.979 497.295,324.061 497.65,324.067C498.01,324.074 498.138,323.496 497.798,323.362C497.497,323.243 497.187,323.168 496.874,323.13C495.964,322.624 495.672,321.225 495.925,320.254C496.353,318.603 498.249,317.818 499.718,317.366C503.634,316.162 507.683,315.299 511.65,314.281C520.015,312.136 528.379,309.991 536.744,307.847L549.143,304.667C552.969,303.686 556.816,302.763 560.605,301.644C567.058,299.737 573.824,297.007 578.222,291.678C582.464,286.537 584.582,278.986 581.154,272.872Z" style="fill:rgb(17,23,50);fill-rule:nonzero;"/>
        <path d="M602.635,163.901C607.477,173.667 598.891,222.476 598.891,222.476L598.203,278.704C589.027,270.357 564.361,267.085 545.846,265.807L545.838,265.807C533.195,264.933 523.421,264.992 523.421,264.992L507.214,248.793L526.328,235.358C517.601,233.766 482.705,209.325 482.705,209.325L485.119,205.984L494.168,193.483L495.034,192.288L520.439,207.658C520.439,207.658 519.753,189.314 522.017,175.259C524.288,161.204 542.572,155.173 542.572,155.173L542.251,160.546C542.251,160.546 544.956,172.33 546.615,176.432L550.045,162.623L567.283,146.207L566.364,142.912C572.462,142 574.105,150.025 574.105,150.025C574.105,150.025 597.785,154.135 602.635,163.901Z" style="fill:white;fill-rule:nonzero;"/>
        <path d="M531.354,184.487C530.258,190.757 529.356,197.061 528.656,203.388C527.96,209.687 527.462,216.007 527.162,222.337C526.99,225.944 526.885,229.554 526.843,233.165C526.837,233.645 527.583,233.597 527.589,233.118C527.663,226.756 527.935,220.396 528.412,214.052C528.885,207.766 529.555,201.495 530.421,195.251C530.912,191.704 531.469,188.167 532.085,184.64C532.168,184.167 531.437,184.013 531.354,184.487Z" style="fill:rgb(17,23,50);fill-rule:nonzero;"/>
        <path d="M571.763,179.45C566.281,190.03 560.801,200.61 555.319,211.191C553.777,214.167 552.235,217.142 550.694,220.118C550.689,220.127 550.69,220.136 550.686,220.146C550.68,220.149 550.673,220.149 550.666,220.153C544.306,224.241 537.946,228.328 531.587,232.415C529.762,233.588 527.937,234.76 526.113,235.933C525.708,236.193 526.117,236.818 526.521,236.558C532.882,232.471 539.241,228.384 545.602,224.296C547.426,223.124 549.251,221.951 551.075,220.779C551.148,220.731 551.187,220.671 551.212,220.607C551.268,220.575 551.321,220.532 551.358,220.459C556.84,209.879 562.321,199.299 567.803,188.719C569.345,185.743 570.886,182.768 572.428,179.792C572.649,179.364 571.984,179.023 571.763,179.45Z" style="fill:rgb(17,23,50);fill-rule:nonzero;"/>
        <path d="M599.616,186.618C597.652,194.051 595.688,201.504 593.025,208.725C590.6,215.303 587.585,221.705 583.594,227.486C579.632,233.225 574.7,238.098 568.956,242.045C563.168,246.023 556.842,249.124 550.517,252.139C543.345,255.558 536.166,258.965 528.991,262.377C528.093,262.805 527.195,263.231 526.297,263.658C525.868,263.862 526.1,264.574 526.534,264.367C533.887,260.87 541.239,257.373 548.592,253.876C554.968,250.844 561.388,247.83 567.343,244.012C573.255,240.223 578.493,235.594 582.72,229.97C586.898,224.409 590.109,218.18 592.672,211.729C595.538,204.513 597.626,197.023 599.617,189.529C599.862,188.609 600.105,187.69 600.348,186.771C600.471,186.305 599.739,186.154 599.616,186.618Z" style="fill:rgb(17,23,50);fill-rule:nonzero;"/>
        <path d="M574.153,150.797C571.521,158.444 567.339,165.548 561.948,171.574C560.614,173.066 559.193,174.479 557.72,175.833C556.791,170.985 554.384,166.491 550.813,163.069C550.465,162.736 549.966,163.292 550.312,163.624C553.875,167.037 556.275,171.583 557.087,176.45C556.914,176.688 557.146,176.977 557.418,176.985C557.621,177.039 557.851,176.941 557.872,176.714C563.888,171.288 568.812,164.668 572.285,157.348C573.272,155.266 574.136,153.128 574.885,150.95C575.041,150.497 574.309,150.348 574.153,150.797Z" style="fill:rgb(17,23,50);fill-rule:nonzero;"/>
        <path d="M541.89,161.765C539.385,164.362 537.642,167.626 536.846,171.139C535.415,167.388 535.315,163.176 536.677,159.382C536.838,158.935 536.175,158.589 536.013,159.041C534.465,163.354 534.626,168.177 536.527,172.356C536.662,172.654 537.034,172.634 537.193,172.453C537.284,172.411 537.357,172.332 537.381,172.201C538.043,168.464 539.81,164.998 542.443,162.266C542.778,161.918 542.223,161.419 541.89,161.765Z" style="fill:rgb(17,23,50);fill-rule:nonzero;"/>
        <path d="M493.769,205.628C493.73,204.847 492.977,204.145 492.182,204.23C491.367,204.317 490.744,204.979 490.784,205.816C490.872,207.617 490.959,209.417 491.046,211.218C491.084,211.999 491.838,212.701 492.632,212.615C493.447,212.528 494.07,211.866 494.03,211.029C493.942,209.229 493.855,207.428 493.769,205.628Z" style="fill:rgb(202,220,219);fill-rule:nonzero;"/>
        <path d="M504.632,202.998C502.878,203.223 501.123,203.448 499.368,203.673C498.594,203.772 497.88,204.42 497.97,205.259C498.052,206.021 498.726,206.763 499.556,206.657C501.311,206.432 503.065,206.207 504.82,205.981C505.594,205.882 506.309,205.234 506.219,204.396C506.137,203.633 505.463,202.891 504.632,202.998Z" style="fill:rgb(202,220,219);fill-rule:nonzero;"/>
        <path d="M503.917,216.33C503.749,215.77 503.609,215.202 503.49,214.63C503.331,213.76 503.224,212.882 503.18,211.998C503.141,211.217 502.389,210.515 501.594,210.601C500.78,210.688 500.154,211.35 500.196,212.187C500.282,213.908 500.587,215.627 501.082,217.278C501.307,218.028 502.237,218.504 502.974,218.221C503.749,217.924 504.157,217.131 503.917,216.33Z" style="fill:rgb(202,220,219);fill-rule:nonzero;"/>
        <path d="M515.977,211.213C515.84,210.859 515.598,210.521 515.242,210.358C514.852,210.18 514.5,210.187 514.085,210.271C512.104,210.67 510.154,211.202 508.246,211.863C507.507,212.119 507.012,212.996 507.303,213.755C507.591,214.504 508.404,214.972 509.194,214.698C511.103,214.037 513.054,213.505 515.033,213.105C515.374,213.037 515.737,212.665 515.888,212.372C516.057,212.042 516.112,211.566 515.977,211.213Z" style="fill:rgb(202,220,219);fill-rule:nonzero;"/>
        <path d="M514.346,224.209C513.841,222.639 513.336,221.069 512.831,219.499C512.591,218.754 511.686,218.269 510.939,218.555C510.177,218.848 509.74,219.65 509.996,220.447C510.501,222.018 511.006,223.588 511.511,225.158C511.75,225.903 512.655,226.388 513.401,226.102C514.166,225.809 514.602,225.006 514.346,224.209Z" style="fill:rgb(202,220,219);fill-rule:nonzero;"/>
        <path d="M523.754,219.506C523.395,217.888 523.038,216.27 522.68,214.652C522.603,214.309 522.245,213.951 521.945,213.797C521.615,213.627 521.141,213.574 520.788,213.709C520.434,213.845 520.096,214.087 519.932,214.443C519.755,214.83 519.753,215.188 519.844,215.601C520.203,217.219 520.56,218.837 520.919,220.455C520.995,220.799 521.353,221.156 521.653,221.31C521.982,221.479 522.458,221.534 522.81,221.398C523.164,221.262 523.503,221.02 523.666,220.665C523.844,220.278 523.846,219.919 523.754,219.506Z" style="fill:rgb(202,220,219);fill-rule:nonzero;"/>
        <path d="M527.737,199.808C527.512,199.494 527.185,199.227 526.792,199.163C526.415,199.102 525.984,199.139 525.668,199.375C525.053,199.836 524.467,200.35 523.948,200.917C523.427,201.487 522.973,202.121 522.568,202.777C522.375,203.093 522.367,203.595 522.481,203.936C522.596,204.276 522.883,204.638 523.215,204.791C523.57,204.954 523.995,205.023 524.373,204.878C524.752,204.733 525.015,204.492 525.227,204.145C525.281,204.058 525.339,203.974 525.394,203.889C525.852,203.247 526.383,202.662 526.975,202.14C527.084,202.051 527.192,201.961 527.305,201.876C527.624,201.638 527.866,201.332 527.949,200.932C528.024,200.573 527.954,200.111 527.737,199.808Z" style="fill:rgb(202,220,219);fill-rule:nonzero;"/>
        <path d="M527.3,190.717C526.884,189.425 526.468,188.133 526.051,186.841C525.811,186.096 524.907,185.61 524.159,185.897C523.396,186.19 522.96,186.993 523.216,187.79C523.633,189.082 524.049,190.374 524.465,191.666C524.705,192.411 525.609,192.896 526.356,192.609C527.119,192.316 527.557,191.514 527.3,190.717Z" style="fill:rgb(202,220,219);fill-rule:nonzero;"/>
        <path d="M532.856,174.877C532.388,174.225 531.482,173.981 530.787,174.445C529.596,175.242 528.403,176.039 527.211,176.835C526.89,177.049 526.645,177.401 526.566,177.78C526.491,178.139 526.56,178.601 526.778,178.904C527.247,179.557 528.152,179.8 528.848,179.336C530.039,178.54 531.231,177.743 532.424,176.946C532.745,176.732 532.989,176.38 533.068,176.001C533.143,175.643 533.074,175.181 532.856,174.877Z" style="fill:rgb(202,220,219);fill-rule:nonzero;"/>
        <path d="M542.727,180.075C541.582,179.004 540.436,177.933 539.292,176.861C539.012,176.599 538.576,176.455 538.195,176.479C537.837,176.501 537.414,176.687 537.181,176.968C536.656,177.601 536.678,178.508 537.287,179.079L540.723,182.292C541.003,182.555 541.438,182.7 541.819,182.676C542.178,182.653 542.601,182.468 542.834,182.186C543.358,181.553 543.338,180.646 542.727,180.075Z" style="fill:rgb(202,220,219);fill-rule:nonzero;"/>
        <path d="M541.711,191.19C540.74,189.759 539.77,188.329 538.8,186.898C538.361,186.251 537.394,185.991 536.731,186.466C536.082,186.932 535.83,187.844 536.299,188.535C537.269,189.966 538.239,191.396 539.209,192.827C539.648,193.474 540.615,193.734 541.278,193.259C541.928,192.793 542.18,191.881 541.711,191.19Z" style="fill:rgb(202,220,219);fill-rule:nonzero;"/>
        <path d="M537.871,196.807C537.135,196.469 536.24,196.708 535.858,197.453C535.103,198.921 534.35,200.391 533.595,201.859C533.238,202.554 533.507,203.536 534.241,203.873C534.977,204.21 535.872,203.971 536.254,203.227C537.008,201.758 537.763,200.289 538.517,198.82C538.874,198.125 538.605,197.143 537.871,196.807Z" style="fill:rgb(202,220,219);fill-rule:nonzero;"/>
        <path d="M547.31,205.986C546.727,204.685 546.144,203.385 545.561,202.084C545.398,201.719 545.196,201.419 544.828,201.229C544.498,201.06 544.022,201.006 543.67,201.142C543.315,201.278 542.977,201.52 542.814,201.875C542.656,202.22 542.564,202.672 542.727,203.033C543.31,204.333 543.892,205.634 544.475,206.935C544.638,207.3 544.84,207.6 545.208,207.79C545.538,207.959 546.014,208.013 546.366,207.877C546.721,207.741 547.059,207.499 547.221,207.144C547.379,206.799 547.471,206.347 547.31,205.986Z" style="fill:rgb(202,220,219);fill-rule:nonzero;"/>
        <path d="M553.081,195.819C552.945,195.464 552.703,195.127 552.348,194.964C552.008,194.808 551.543,194.707 551.189,194.876C549.941,195.473 548.693,196.07 547.446,196.667C547.079,196.842 546.784,197.023 546.591,197.4C546.421,197.73 546.367,198.206 546.503,198.559C546.639,198.913 546.881,199.25 547.236,199.413C547.576,199.569 548.041,199.67 548.394,199.501C549.643,198.904 550.891,198.308 552.138,197.71C552.505,197.535 552.8,197.354 552.993,196.977C553.163,196.647 553.217,196.171 553.081,195.819Z" style="fill:rgb(202,220,219);fill-rule:nonzero;"/>
        <path d="M553.89,185.656C553.677,185.358 553.329,185.04 552.945,185.011C552.16,184.952 551.382,184.919 550.596,184.976C549.817,185.031 549.049,185.165 548.287,185.333C547.944,185.41 547.586,185.768 547.433,186.067C547.263,186.397 547.209,186.873 547.345,187.225C547.48,187.58 547.723,187.917 548.078,188.08C548.204,188.125 548.33,188.169 548.456,188.213C548.721,188.268 548.98,188.253 549.236,188.168C549.266,188.162 549.295,188.156 549.324,188.15C550.424,187.948 551.543,187.882 552.658,187.96C552.553,187.952 552.447,187.945 552.342,187.937C552.753,187.967 553.097,187.96 553.457,187.724C553.765,187.523 554.042,187.147 554.102,186.779C554.164,186.397 554.122,185.979 553.89,185.656Z" style="fill:rgb(202,220,219);fill-rule:nonzero;"/>
        <path d="M563.092,183.53C561.552,182.044 559.844,180.742 558.026,179.613C557.713,179.418 557.207,179.412 556.868,179.525C556.527,179.639 556.166,179.927 556.014,180.259C555.652,181.045 555.947,181.83 556.659,182.272C557.004,182.486 557.343,182.712 557.679,182.94C558.885,183.789 560.026,184.724 561.087,185.748C561.65,186.291 562.695,186.249 563.198,185.641C563.729,185 563.693,184.11 563.092,183.53Z" style="fill:rgb(202,220,219);fill-rule:nonzero;"/>
        <path d="M559.871,197.133C559.275,196.161 558.68,195.188 558.085,194.216C557.889,193.896 557.504,193.648 557.14,193.572C556.781,193.497 556.319,193.567 556.017,193.784C555.702,194.009 555.435,194.336 555.371,194.729C555.307,195.127 555.37,195.504 555.584,195.853C556.179,196.825 556.774,197.797 557.369,198.77C557.566,199.091 557.951,199.338 558.314,199.415C558.673,199.489 559.135,199.419 559.438,199.202C559.753,198.977 560.019,198.65 560.083,198.257C560.147,197.859 560.084,197.482 559.871,197.133Z" style="fill:rgb(202,220,219);fill-rule:nonzero;"/>
        <path d="M538.237,210.186C538.762,209.606 538.752,208.59 538.131,208.075C537.507,207.558 536.579,207.562 536.019,208.182C534.755,209.581 533.861,211.234 533.314,213.034C533.209,213.381 533.335,213.865 533.526,214.158C533.727,214.465 534.103,214.743 534.472,214.803C534.853,214.865 535.271,214.822 535.596,214.59C535.934,214.348 536.119,214.044 536.24,213.646C536.266,213.562 536.294,213.479 536.321,213.396C536.61,212.62 536.985,211.882 537.439,211.189C537.688,210.841 537.95,210.504 538.237,210.186Z" style="fill:rgb(202,220,219);fill-rule:nonzero;"/>
        <path d="M535.658,223.244C535.196,222.043 534.734,220.843 534.273,219.643C534.134,219.282 533.889,218.967 533.539,218.788C533.209,218.618 532.733,218.564 532.381,218.7C532.026,218.836 531.689,219.079 531.526,219.434C531.362,219.79 531.293,220.215 531.438,220.592L532.823,224.192C532.962,224.553 533.207,224.868 533.557,225.047C533.887,225.217 534.362,225.271 534.715,225.135C535.069,224.999 535.407,224.757 535.569,224.401C535.733,224.045 535.803,223.621 535.658,223.244Z" style="fill:rgb(202,220,219);fill-rule:nonzero;"/>
        <path d="M546.403,216.381C546.178,216.067 545.852,215.801 545.458,215.737C545.043,215.669 544.707,215.76 544.334,215.949C542.843,216.706 541.352,217.462 539.86,218.218C539.54,218.38 539.285,218.829 539.216,219.163C539.141,219.522 539.21,219.984 539.428,220.287C539.653,220.601 539.979,220.868 540.372,220.932C540.787,220.999 541.124,220.909 541.496,220.719C542.988,219.963 544.479,219.207 545.971,218.45C546.29,218.288 546.546,217.839 546.615,217.505C546.69,217.146 546.621,216.685 546.403,216.381Z" style="fill:rgb(202,220,219);fill-rule:nonzero;"/>
        <path d="M522.274,243.323C521.508,243.198 520.633,243.652 520.505,244.48C520.263,246.047 520.018,247.615 519.776,249.183C519.656,249.954 520.107,250.817 520.934,250.951C521.698,251.075 522.573,250.621 522.702,249.794C522.945,248.227 523.188,246.659 523.432,245.091C523.551,244.32 523.101,243.457 522.274,243.323Z" style="fill:rgb(202,220,219);fill-rule:nonzero;"/>
        <path d="M525.994,256.492C525.159,255.712 524.324,254.931 523.49,254.15C523.21,253.888 522.774,253.743 522.393,253.768C522.034,253.79 521.612,253.976 521.379,254.257C521.129,254.559 520.953,254.951 520.995,255.354C521.038,255.744 521.193,256.095 521.485,256.369C522.32,257.149 523.154,257.93 523.989,258.71C524.268,258.973 524.705,259.117 525.086,259.093C525.444,259.07 525.867,258.886 526.101,258.604C526.351,258.302 526.526,257.909 526.483,257.507C526.441,257.116 526.285,256.766 525.994,256.492Z" style="fill:rgb(202,220,219);fill-rule:nonzero;"/>
        <path d="M532.989,249.097C532.764,248.783 532.437,248.517 532.044,248.453C531.641,248.387 531.275,248.458 530.92,248.665C530.045,249.175 529.169,249.685 528.293,250.195C527.973,250.382 527.723,250.785 527.648,251.14C527.573,251.499 527.643,251.961 527.861,252.264C528.086,252.578 528.412,252.845 528.806,252.908C529.209,252.974 529.574,252.903 529.93,252.696C530.806,252.186 531.681,251.676 532.557,251.166C532.877,250.979 533.127,250.576 533.201,250.221C533.276,249.862 533.207,249.4 532.989,249.097Z" style="fill:rgb(202,220,219);fill-rule:nonzero;"/>
        <path d="M538.682,241.679C538.552,241.341 538.304,240.956 537.947,240.824C536.935,240.448 535.922,240.073 534.908,239.697C534.727,239.595 534.534,239.546 534.33,239.549C534.134,239.517 533.94,239.537 533.75,239.609C533.41,239.723 533.048,240.01 532.895,240.342C532.731,240.699 532.662,241.124 532.808,241.5C532.937,241.839 533.185,242.224 533.541,242.355C534.554,242.731 535.567,243.107 536.58,243.482C536.762,243.584 536.955,243.634 537.158,243.631C537.354,243.663 537.548,243.643 537.738,243.571C538.079,243.457 538.441,243.169 538.594,242.837C538.757,242.48 538.826,242.056 538.682,241.679Z" style="fill:rgb(202,220,219);fill-rule:nonzero;"/>
        <path d="M543.916,249.155L542.935,245.419C542.844,245.071 542.514,244.725 542.201,244.564C541.871,244.395 541.395,244.341 541.043,244.476C540.688,244.612 540.351,244.854 540.188,245.21C540.015,245.589 539.994,245.963 540.101,246.368L541.081,250.104C541.172,250.453 541.503,250.798 541.814,250.959C542.144,251.129 542.62,251.183 542.973,251.047C543.327,250.911 543.665,250.668 543.827,250.313C544.002,249.934 544.021,249.56 543.916,249.155Z" style="fill:rgb(202,220,219);fill-rule:nonzero;"/>
        <path d="M542.298,232.203C540.913,232.256 539.528,232.311 538.143,232.364C537.362,232.395 536.661,233.161 536.746,233.95C536.834,234.771 537.495,235.38 538.332,235.348C539.717,235.294 541.102,235.24 542.485,235.187C543.267,235.156 543.968,234.39 543.884,233.601C543.795,232.779 543.135,232.17 542.298,232.203Z" style="fill:rgb(202,220,219);fill-rule:nonzero;"/>
        <path d="M549.765,242.084L548.658,238.068C548.449,237.313 547.491,236.846 546.766,237.125C545.977,237.428 545.601,238.209 545.823,239.017C546.192,240.355 546.561,241.694 546.931,243.033C547.139,243.788 548.097,244.254 548.822,243.976C549.611,243.673 549.988,242.892 549.765,242.084Z" style="fill:rgb(202,220,219);fill-rule:nonzero;"/>
        <path d="M557.937,235.312C557.802,234.958 557.56,234.62 557.204,234.457C556.826,234.284 556.449,234.259 556.046,234.369C555.03,234.646 554.015,234.922 552.999,235.198C552.649,235.293 552.306,235.617 552.143,235.932C551.975,236.262 551.921,236.738 552.056,237.09C552.192,237.445 552.435,237.782 552.79,237.945C553.167,238.118 553.545,238.143 553.947,238.033C554.964,237.757 555.979,237.48 556.995,237.204C557.345,237.109 557.687,236.785 557.85,236.47C558.019,236.14 558.073,235.665 557.937,235.312Z" style="fill:rgb(202,220,219);fill-rule:nonzero;"/>
        <path d="M554.2,226.735C554.064,226.38 553.822,226.042 553.467,225.88C553.086,225.705 552.716,225.689 552.309,225.792C551.201,226.071 550.095,226.351 548.987,226.63C548.64,226.718 548.291,227.055 548.133,227.364C547.963,227.694 547.909,228.169 548.044,228.522C548.181,228.877 548.423,229.214 548.778,229.377C549.159,229.552 549.529,229.568 549.936,229.465C551.043,229.186 552.15,228.906 553.258,228.626C553.604,228.539 553.954,228.202 554.112,227.893C554.282,227.563 554.336,227.087 554.2,226.735Z" style="fill:rgb(202,220,219);fill-rule:nonzero;"/>
        <path d="M559.584,242.716C559.448,242.362 559.205,242.024 558.851,241.861C558.725,241.817 558.599,241.772 558.473,241.728C558.208,241.673 557.948,241.688 557.692,241.773C556.262,242.055 554.832,242.336 553.402,242.618C553.061,242.685 552.697,243.06 552.547,243.352C552.378,243.682 552.323,244.157 552.459,244.51C552.595,244.864 552.838,245.202 553.192,245.365C553.318,245.409 553.444,245.454 553.57,245.498C553.835,245.553 554.095,245.538 554.351,245.453C555.781,245.171 557.211,244.89 558.641,244.608C558.981,244.541 559.346,244.167 559.496,243.874C559.665,243.544 559.72,243.069 559.584,242.716Z" style="fill:rgb(202,220,219);fill-rule:nonzero;"/>
        <path d="M567.927,232.865C567.651,232.616 567.206,232.441 566.83,232.482C566.453,232.522 566.065,232.67 565.815,232.972C565.742,233.078 565.669,233.184 565.596,233.29C565.472,233.535 565.417,233.794 565.433,234.068C565.381,235.268 565.329,236.468 565.278,237.667C565.263,238.019 565.518,238.456 565.768,238.683C566.043,238.932 566.488,239.106 566.864,239.065C567.241,239.025 567.629,238.877 567.879,238.576C567.952,238.47 568.025,238.363 568.099,238.257C568.223,238.013 568.277,237.753 568.262,237.479C568.313,236.279 568.365,235.08 568.416,233.88C568.432,233.528 568.177,233.091 567.927,232.865Z" style="fill:rgb(202,220,219);fill-rule:nonzero;"/>
        <path d="M563.042,215.733C562.765,215.009 561.929,214.483 561.15,214.79C559.667,215.374 558.184,215.958 556.7,216.542C556.339,216.685 556.026,216.924 555.846,217.276C555.676,217.606 555.622,218.082 555.757,218.435C556.035,219.158 556.871,219.684 557.649,219.377C559.133,218.793 560.616,218.209 562.1,217.625C562.461,217.482 562.773,217.243 562.954,216.891C563.124,216.561 563.178,216.085 563.042,215.733Z" style="fill:rgb(202,220,219);fill-rule:nonzero;"/>
        <path d="M562.807,221.233C562.531,220.984 562.086,220.81 561.71,220.85C561.332,220.891 560.945,221.039 560.695,221.34C560.422,221.669 560.337,222.012 560.312,222.436C560.224,223.957 560.135,225.478 560.046,226.999C560.025,227.346 560.289,227.791 560.535,228.013C560.81,228.262 561.257,228.437 561.632,228.396C562.01,228.355 562.396,228.208 562.646,227.907C562.92,227.577 563.005,227.234 563.029,226.81C563.118,225.29 563.207,223.769 563.296,222.248C563.316,221.9 563.053,221.456 562.807,221.233Z" style="fill:rgb(202,220,219);fill-rule:nonzero;"/>
        <path d="M574.417,219.661C574.281,219.307 574.039,218.969 573.684,218.806C573.322,218.641 572.908,218.58 572.525,218.718C571.372,219.135 570.219,219.552 569.065,219.97C568.707,220.1 568.387,220.361 568.21,220.703C568.041,221.033 567.987,221.509 568.122,221.861C568.259,222.216 568.501,222.553 568.856,222.716C569.217,222.882 569.632,222.943 570.014,222.804C571.168,222.387 572.321,221.97 573.475,221.553C573.833,221.423 574.153,221.162 574.329,220.819C574.499,220.489 574.553,220.014 574.417,219.661Z" style="fill:rgb(202,220,219);fill-rule:nonzero;"/>
        <path d="M572.386,209.392C572.103,208.055 571.82,206.717 571.538,205.38C571.466,205.038 571.101,204.677 570.804,204.525C570.474,204.355 569.999,204.301 569.646,204.437C569.292,204.573 568.954,204.815 568.791,205.17C568.747,205.296 568.702,205.423 568.657,205.548C568.603,205.813 568.618,206.073 568.703,206.329C568.985,207.666 569.268,209.003 569.551,210.341C569.623,210.683 569.988,211.043 570.284,211.196C570.614,211.366 571.09,211.419 571.442,211.284C571.797,211.148 572.135,210.905 572.298,210.55C572.342,210.424 572.387,210.298 572.432,210.172C572.485,209.908 572.471,209.648 572.386,209.392Z" style="fill:rgb(202,220,219);fill-rule:nonzero;"/>
        <path d="M564.695,207.473C564.631,207.286 564.586,207.095 564.54,206.903C564.484,206.539 564.462,206.172 564.477,205.804C564.484,205.741 564.489,205.678 564.499,205.615C564.559,205.223 564.508,204.829 564.287,204.491C564.086,204.184 563.71,203.906 563.342,203.846C562.96,203.784 562.542,203.826 562.218,204.059C561.905,204.282 561.633,204.611 561.573,205.003C561.398,206.151 561.478,207.321 561.86,208.421C561.985,208.779 562.257,209.103 562.595,209.276C562.925,209.446 563.4,209.5 563.753,209.364C564.107,209.228 564.444,208.986 564.607,208.63C564.774,208.267 564.83,207.858 564.695,207.473Z" style="fill:rgb(202,220,219);fill-rule:nonzero;"/>
        <path d="M575.094,195.354C574.957,195 574.715,194.663 574.359,194.5C574.233,194.455 574.107,194.411 573.981,194.366C573.717,194.312 573.457,194.327 573.201,194.412C571.773,194.703 570.346,194.994 568.917,195.285C568.576,195.354 568.213,195.724 568.062,196.018C567.893,196.348 567.839,196.824 567.974,197.176C568.11,197.531 568.352,197.868 568.708,198.031C568.834,198.076 568.96,198.12 569.086,198.165C569.35,198.219 569.61,198.204 569.866,198.119L574.15,197.247C574.491,197.177 574.853,196.807 575.005,196.513C575.175,196.183 575.228,195.707 575.094,195.354Z" style="fill:rgb(202,220,219);fill-rule:nonzero;"/>
        <path d="M580.36,189.245C579.671,187.951 578.982,186.657 578.293,185.362C578.122,185.042 577.689,184.789 577.348,184.718C576.989,184.643 576.527,184.713 576.224,184.93C575.91,185.155 575.643,185.482 575.579,185.875C575.513,186.286 575.597,186.632 575.792,186.999C576.48,188.293 577.17,189.587 577.859,190.881C578.03,191.202 578.463,191.455 578.805,191.526C579.163,191.601 579.625,191.531 579.928,191.314C580.242,191.088 580.509,190.762 580.572,190.369C580.64,189.958 580.556,189.612 580.36,189.245Z" style="fill:rgb(202,220,219);fill-rule:nonzero;"/>
        <path d="M572.716,172.351C572.26,171.714 571.327,171.434 570.647,171.919C570.062,172.336 569.445,172.702 568.805,173.026C568.084,173.364 567.341,173.648 566.573,173.862C565.818,174.072 565.351,175.027 565.63,175.753C565.933,176.541 566.715,176.921 567.521,176.697C569.218,176.224 570.85,175.442 572.283,174.42C572.921,173.966 573.199,173.025 572.716,172.351Z" style="fill:rgb(202,220,219);fill-rule:nonzero;"/>
        <path d="M544.889,262.186C544.628,261.775 544.397,261.349 544.18,260.914C543.882,260.271 543.627,259.61 543.429,258.929C543.209,258.179 542.269,257.705 541.537,257.986C540.757,258.285 540.359,259.074 540.594,259.878C540.998,261.266 541.614,262.603 542.388,263.822C542.807,264.483 543.807,264.72 544.456,264.254C545.122,263.776 545.336,262.891 544.889,262.186Z" style="fill:rgb(202,220,219);fill-rule:nonzero;"/>
        <path d="M555.011,255.9C554.875,255.546 554.632,255.208 554.277,255.046C553.937,254.89 553.474,254.789 553.119,254.957C552.056,255.462 550.993,255.967 549.93,256.472C549.74,256.529 549.577,256.625 549.44,256.763C549.282,256.878 549.16,257.024 549.075,257.206C548.905,257.537 548.852,258.011 548.986,258.365C549.123,258.718 549.365,259.056 549.721,259.219C550.06,259.375 550.524,259.475 550.879,259.307C551.941,258.802 553.005,258.297 554.067,257.792C554.258,257.736 554.421,257.639 554.557,257.501C554.716,257.387 554.838,257.24 554.923,257.059C555.093,256.729 555.146,256.253 555.011,255.9Z" style="fill:rgb(202,220,219);fill-rule:nonzero;"/>
        <path d="M566.054,256.159C565.062,254.788 563.817,253.659 562.36,252.801C562.037,252.61 561.549,252.596 561.202,252.712C560.861,252.826 560.499,253.114 560.347,253.446C560.184,253.803 560.114,254.227 560.259,254.604C560.403,254.979 560.643,255.254 560.993,255.459C561.147,255.55 561.296,255.649 561.445,255.748C562.079,256.205 562.659,256.729 563.177,257.315C563.305,257.474 563.434,257.632 563.553,257.796C563.783,258.115 564.103,258.357 564.497,258.44C564.855,258.516 565.317,258.445 565.621,258.228C565.935,258.003 566.201,257.676 566.266,257.283C566.327,256.901 566.286,256.481 566.054,256.159Z" style="fill:rgb(202,220,219);fill-rule:nonzero;"/>
        <path d="M563.741,264.527C563.657,264.28 563.518,264.068 563.326,263.893C562.501,263.01 561.676,262.128 560.851,261.245C560.599,260.977 560.109,260.84 559.754,260.862C559.395,260.886 558.973,261.07 558.739,261.352C558.489,261.654 558.313,262.046 558.356,262.448C558.382,262.574 558.406,262.701 558.431,262.828C558.516,263.075 558.653,263.287 558.846,263.463C559.671,264.345 560.496,265.228 561.321,266.11C561.573,266.38 562.062,266.516 562.418,266.493C562.776,266.471 563.199,266.285 563.433,266.004C563.683,265.702 563.858,265.31 563.815,264.907C563.79,264.78 563.766,264.654 563.741,264.527Z" style="fill:rgb(202,220,219);fill-rule:nonzero;"/>
        <path d="M574.821,263.389C574.536,262.647 573.716,262.162 572.929,262.445C571.542,262.946 570.154,263.446 568.767,263.946C568.031,264.212 567.529,265.073 567.823,265.839C568.108,266.58 568.929,267.065 569.716,266.781C571.102,266.281 572.49,265.78 573.878,265.28C574.613,265.016 575.115,264.154 574.821,263.389Z" style="fill:rgb(202,220,219);fill-rule:nonzero;"/>
        <path d="M577.97,253.631C577.744,253.316 577.418,253.05 577.024,252.986C576.661,252.927 576.197,252.95 575.9,253.198C574.923,254.019 573.944,254.84 572.967,255.66C572.797,255.763 572.663,255.898 572.566,256.068C572.437,256.223 572.356,256.403 572.322,256.606C572.247,256.964 572.317,257.426 572.534,257.729C572.76,258.043 573.086,258.31 573.479,258.374C573.844,258.434 574.308,258.41 574.603,258.162C575.581,257.341 576.56,256.521 577.537,255.699C577.707,255.597 577.841,255.461 577.938,255.292C578.066,255.137 578.147,254.958 578.182,254.755C578.257,254.396 578.186,253.934 577.97,253.631Z" style="fill:rgb(202,220,219);fill-rule:nonzero;"/>
        <path d="M581.329,247.497C581.273,247.382 581.218,247.268 581.162,247.153C581.018,246.934 580.829,246.763 580.596,246.642C579.329,245.773 578.062,244.905 576.796,244.036C576.499,243.833 575.962,243.839 575.638,243.948C575.297,244.062 574.935,244.35 574.783,244.682C574.619,245.038 574.55,245.462 574.695,245.839C574.75,245.954 574.806,246.069 574.861,246.184C575.006,246.403 575.195,246.573 575.429,246.694C576.695,247.563 577.962,248.432 579.228,249.301C579.524,249.504 580.062,249.497 580.387,249.389C580.727,249.274 581.089,248.987 581.241,248.655C581.404,248.298 581.475,247.874 581.329,247.497Z" style="fill:rgb(202,220,219);fill-rule:nonzero;"/>
        <path d="M591.043,253.485C589.895,252.372 588.746,251.259 587.598,250.145C587.036,249.6 585.989,249.645 585.487,250.251C584.955,250.893 584.993,251.78 585.594,252.362C586.742,253.476 587.891,254.59 589.038,255.703C589.601,256.249 590.647,256.203 591.149,255.597C591.682,254.955 591.643,254.067 591.043,253.485Z" style="fill:rgb(202,220,219);fill-rule:nonzero;"/>
        <path d="M587.13,263.341C586.38,262.009 585.631,260.676 584.882,259.344C584.701,259.024 584.286,258.771 583.936,258.699C583.578,258.624 583.116,258.693 582.812,258.912C582.498,259.137 582.232,259.464 582.168,259.856C582.102,260.263 582.178,260.62 582.381,260.979C583.13,262.313 583.879,263.645 584.629,264.978C584.809,265.298 585.224,265.549 585.573,265.622C585.933,265.697 586.395,265.627 586.697,265.41C587.012,265.185 587.278,264.858 587.342,264.465C587.408,264.059 587.332,263.701 587.13,263.341Z" style="fill:rgb(202,220,219);fill-rule:nonzero;"/>
        <path d="M595.598,265.732C595.144,265.1 594.206,264.813 593.529,265.301C592.105,266.326 590.683,267.353 589.259,268.379C588.625,268.836 588.342,269.771 588.827,270.447C589.281,271.081 590.218,271.368 590.896,270.88L595.166,267.802C595.8,267.345 596.083,266.409 595.598,265.732Z" style="fill:rgb(202,220,219);fill-rule:nonzero;"/>
        <path d="M595.956,247.588C595.772,246.157 595.588,244.726 595.404,243.295C595.354,242.906 595.212,242.549 594.914,242.28C594.64,242.031 594.193,241.857 593.818,241.897C593.056,241.979 592.313,242.653 592.421,243.483C592.604,244.914 592.789,246.345 592.973,247.776C593.022,248.165 593.165,248.522 593.462,248.791C593.737,249.04 594.184,249.214 594.559,249.174C595.321,249.092 596.063,248.418 595.956,247.588Z" style="fill:rgb(202,220,219);fill-rule:nonzero;"/>
        <path d="M589.618,237.448C589.417,237.141 589.041,236.863 588.673,236.803C587.854,236.67 587.099,237.145 586.904,237.96C586.674,238.93 586.443,239.899 586.212,240.868C586.125,241.234 586.221,241.68 586.425,241.992C586.625,242.299 587.002,242.577 587.369,242.637C588.188,242.77 588.943,242.295 589.138,241.479C589.368,240.51 589.6,239.541 589.83,238.571C589.918,238.205 589.822,237.76 589.618,237.448Z" style="fill:rgb(202,220,219);fill-rule:nonzero;"/>
        <path d="M593.357,226.785C593.132,226.47 592.806,226.204 592.412,226.14L592.013,226.111C591.75,226.128 591.509,226.209 591.288,226.352C590.272,226.906 589.257,227.46 588.241,228.014C587.922,228.188 587.669,228.614 587.597,228.959C587.522,229.317 587.592,229.779 587.81,230.083C588.034,230.397 588.361,230.664 588.754,230.728C588.888,230.737 589.021,230.747 589.154,230.756C589.416,230.739 589.657,230.658 589.878,230.515C590.894,229.961 591.909,229.407 592.925,228.853C593.245,228.679 593.497,228.253 593.569,227.908C593.645,227.55 593.574,227.088 593.357,226.785Z" style="fill:rgb(202,220,219);fill-rule:nonzero;"/>
        <path d="M598.094,217.989C597.771,216.881 597.447,215.773 597.124,214.665C597.021,214.313 596.712,213.975 596.391,213.81C596.061,213.641 595.585,213.586 595.232,213.722C594.453,214.021 594.055,214.81 594.289,215.614C594.612,216.722 594.936,217.83 595.259,218.938C595.361,219.289 595.672,219.627 595.992,219.792C596.322,219.962 596.798,220.016 597.15,219.88C597.931,219.581 598.328,218.792 598.094,217.989Z" style="fill:rgb(202,220,219);fill-rule:nonzero;"/>
        <path d="M581.351,234.868C580.527,234.734 579.782,235.211 579.582,236.025C579.537,236.207 579.478,236.385 579.422,236.563C579.214,237.106 578.949,237.624 578.63,238.11C578.385,238.442 578.121,238.758 577.827,239.049C577.56,239.313 577.422,239.78 577.444,240.146C577.467,240.504 577.652,240.927 577.935,241.16C578.587,241.701 579.451,241.643 580.045,241.054C581.26,239.851 582.101,238.292 582.508,236.637C582.694,235.877 582.128,234.995 581.351,234.868Z" style="fill:rgb(202,220,219);fill-rule:nonzero;"/>
        <path d="M580.927,219.925C580.587,219.151 580.337,218.344 580.161,217.518C580.098,217.158 580.042,216.796 580.011,216.432C579.977,216.051 579.807,215.675 579.52,215.417C579.245,215.168 578.8,214.994 578.424,215.034C577.635,215.119 576.953,215.786 577.026,216.62C577.154,218.079 577.503,219.532 578.092,220.874C578.252,221.239 578.46,221.541 578.825,221.729C579.155,221.898 579.631,221.953 579.983,221.817C580.338,221.681 580.676,221.438 580.839,221.083C580.997,220.737 581.086,220.289 580.927,219.925Z" style="fill:rgb(202,220,219);fill-rule:nonzero;"/>
        <path d="M578.291,229.067C578.154,228.712 577.912,228.375 577.557,228.212C577.196,228.047 576.781,227.985 576.399,228.124L573.352,229.232C572.993,229.362 572.674,229.623 572.498,229.966C572.328,230.296 572.274,230.771 572.409,231.124C572.546,231.478 572.788,231.816 573.143,231.979C573.504,232.144 573.919,232.206 574.301,232.067C575.316,231.697 576.332,231.328 577.348,230.959C577.707,230.828 578.026,230.568 578.203,230.225C578.372,229.895 578.427,229.42 578.291,229.067Z" style="fill:rgb(202,220,219);fill-rule:nonzero;"/>
        <path d="M587.58,209.188C587.487,208.737 587.343,208.299 587.153,207.879C587.098,207.69 587,207.527 586.862,207.39C586.748,207.231 586.601,207.109 586.42,207.024C586.09,206.855 585.614,206.801 585.262,206.937C584.907,207.072 584.57,207.315 584.407,207.67C584.249,208.014 584.156,208.468 584.319,208.828C584.493,209.214 584.619,209.616 584.714,210.028C584.768,210.376 584.802,210.726 584.798,211.079C584.795,211.438 585.029,211.859 585.288,212.094C585.563,212.343 586.009,212.517 586.385,212.477C586.762,212.436 587.149,212.288 587.399,211.987C587.473,211.881 587.546,211.775 587.619,211.668C587.743,211.424 587.798,211.165 587.782,210.891C587.787,210.312 587.697,209.754 587.58,209.188Z" style="fill:rgb(202,220,219);fill-rule:nonzero;"/>
        <path d="M583.969,201.371C583.832,201.017 583.59,200.679 583.235,200.516C582.892,200.358 582.435,200.264 582.077,200.428C581.338,200.765 580.622,201.143 579.959,201.613C579.3,202.08 578.679,202.615 578.119,203.197C577.854,203.471 577.712,203.918 577.735,204.293C577.759,204.652 577.944,205.075 578.226,205.308C578.865,205.839 579.757,205.804 580.337,205.202C580.536,204.994 580.749,204.801 580.964,204.609C581.615,204.074 582.32,203.61 583.076,203.237C583.418,203.075 583.699,202.881 583.881,202.529C584.05,202.199 584.103,201.724 583.969,201.371Z" style="fill:rgb(202,220,219);fill-rule:nonzero;"/>
        <path d="M593.247,198.186C592.831,197.216 592.416,196.247 592.001,195.278C591.845,194.914 591.629,194.609 591.267,194.423C590.937,194.253 590.461,194.199 590.108,194.334C589.754,194.471 589.417,194.713 589.254,195.068C589.094,195.417 589.009,195.86 589.166,196.227C589.581,197.196 589.996,198.165 590.412,199.134C590.568,199.499 590.783,199.803 591.146,199.989C591.476,200.159 591.951,200.213 592.304,200.078C592.658,199.941 592.996,199.699 593.159,199.344C593.318,198.996 593.403,198.552 593.247,198.186Z" style="fill:rgb(202,220,219);fill-rule:nonzero;"/>
        <path d="M589.758,185.795C589.532,185.481 589.206,185.215 588.813,185.151C588.41,185.085 588.044,185.156 587.688,185.363C586.451,186.087 585.332,187.081 584.482,188.236C584.341,188.382 584.245,188.551 584.195,188.744C584.111,188.929 584.079,189.125 584.1,189.333C584.122,189.692 584.308,190.114 584.589,190.348C584.892,190.598 585.283,190.774 585.686,190.73C586.05,190.691 586.474,190.549 586.7,190.241C587.109,189.684 587.582,189.179 588.1,188.721C588.487,188.407 588.894,188.117 589.325,187.864C589.646,187.677 589.896,187.275 589.97,186.919C590.045,186.561 589.975,186.099 589.758,185.795Z" style="fill:rgb(202,220,219);fill-rule:nonzero;"/>
        <path d="M597.54,183.922C597.171,182.676 596.801,181.43 596.432,180.183C596.21,179.433 595.275,178.958 594.54,179.24C593.763,179.539 593.359,180.329 593.597,181.132C593.967,182.378 594.336,183.625 594.705,184.871C594.928,185.622 595.861,186.096 596.597,185.814C597.374,185.516 597.777,184.725 597.54,183.922Z" style="fill:rgb(202,220,219);fill-rule:nonzero;"/>
        <path d="M599.813,168.465C599.792,168.272 599.724,168.094 599.608,167.932C599.408,167.625 599.032,167.347 598.664,167.287C598.282,167.225 597.864,167.267 597.54,167.499C597.242,167.713 596.925,168.06 596.896,168.444C596.812,169.553 596.727,170.661 596.643,171.77C596.593,171.969 596.596,172.166 596.651,172.359C596.672,172.553 596.74,172.731 596.855,172.894C597.056,173.2 597.432,173.478 597.8,173.538C598.182,173.6 598.6,173.558 598.924,173.326C599.222,173.112 599.539,172.765 599.568,172.381C599.652,171.272 599.737,170.164 599.821,169.055C599.871,168.855 599.868,168.659 599.813,168.465Z" style="fill:rgb(202,220,219);fill-rule:nonzero;"/>
        <path d="M591.479,163.693C591.098,162.543 590.716,161.393 590.335,160.243C590.218,159.887 589.935,159.559 589.602,159.388C589.271,159.218 588.796,159.165 588.443,159.3C587.686,159.591 587.237,160.397 587.5,161.192C587.882,162.342 588.263,163.492 588.644,164.642C588.762,164.998 589.044,165.326 589.377,165.497C589.707,165.667 590.183,165.721 590.535,165.585C591.293,165.294 591.741,164.488 591.479,163.693Z" style="fill:rgb(202,220,219);fill-rule:nonzero;"/>
        <path d="M581.162,160.209C579.731,159.515 578.301,158.821 576.871,158.128C576.169,157.787 575.199,158.028 574.857,158.773C574.526,159.496 574.751,160.421 575.504,160.787C576.934,161.48 578.364,162.174 579.795,162.868C580.497,163.208 581.466,162.967 581.808,162.222C582.139,161.5 581.914,160.574 581.162,160.209Z" style="fill:rgb(202,220,219);fill-rule:nonzero;"/>
        <path d="M585.663,167.603C585.549,167.262 585.262,166.9 584.929,166.748C584.572,166.584 584.148,166.515 583.771,166.66C583.656,166.715 583.542,166.771 583.427,166.827C583.235,166.953 583.088,167.12 582.971,167.314C582.53,167.939 582.017,168.505 581.444,169.012C581.137,169.261 580.818,169.497 580.482,169.708C580.162,169.909 579.915,170.284 579.838,170.652C579.764,171.011 579.833,171.473 580.051,171.776C580.276,172.09 580.602,172.357 580.995,172.421C581.392,172.485 581.775,172.425 582.119,172.208C582.811,171.773 583.453,171.25 584.037,170.679C584.628,170.102 585.121,169.449 585.575,168.761C585.775,168.458 585.773,167.933 585.663,167.603Z" style="fill:rgb(202,220,219);fill-rule:nonzero;"/>
        <path d="M592.572,174.637C591.972,173.206 591.371,171.775 590.771,170.344C590.618,169.98 590.397,169.674 590.037,169.489C589.707,169.319 589.231,169.266 588.879,169.401C588.17,169.673 587.612,170.522 587.937,171.292C588.536,172.724 589.137,174.154 589.737,175.585C589.89,175.949 590.111,176.255 590.471,176.44C590.801,176.61 591.276,176.664 591.629,176.528C592.339,176.256 592.896,175.407 592.572,174.637Z" style="fill:rgb(202,220,219);fill-rule:nonzero;"/>
        <path d="M585.975,177.469C585.749,177.155 585.423,176.888 585.029,176.824C584.619,176.758 584.271,176.84 583.905,177.037C582.596,177.74 581.286,178.443 579.977,179.146C579.656,179.318 579.403,179.749 579.332,180.091C579.257,180.45 579.326,180.912 579.544,181.215C579.769,181.529 580.096,181.796 580.489,181.86C580.899,181.927 581.247,181.844 581.612,181.647C582.923,180.944 584.232,180.241 585.542,179.538C585.862,179.366 586.115,178.936 586.187,178.593C586.262,178.234 586.191,177.772 585.975,177.469Z" style="fill:rgb(202,220,219);fill-rule:nonzero;"/>
        <path d="M566.364,142.912L567.283,146.207L550.045,162.623L546.615,176.432C544.956,172.33 542.251,160.546 542.251,160.546L542.572,155.173L542.879,150.025L542.842,149.823C539.517,150.361 536.042,149.838 533.173,148.104C530.019,146.199 527.793,143.046 526.201,139.721C523.653,134.423 522.518,128.542 522.158,122.677C521.814,117.08 522.166,111.461 522.539,105.849C523.862,105.976 525.199,105.961 526.507,105.834C530.916,105.416 535.115,103.862 539.352,102.584C541.81,101.844 544.478,101.187 546.906,102.039C549.447,102.935 551.188,105.319 552.271,107.792C553.348,110.258 553.937,112.933 555.096,115.361C556.12,117.506 557.733,119.539 559.9,120.42C560.095,119.352 560.52,118.328 561.261,117.536C562.157,116.594 563.532,116.064 564.787,116.385C566.432,116.804 567.433,118.478 567.866,120.114C568.531,122.587 568.277,125.299 567.156,127.616C566.305,129.387 564.952,130.911 563.301,131.979L564.93,137.8L566.364,142.912Z" style="fill:rgb(247,170,171);fill-rule:nonzero;"/>
        <path d="M545.404,134.408C545.404,134.408 547.534,139.698 542.572,142.433C537.611,145.168 534.017,140.408 534.017,140.408L545.404,134.408Z" style="fill:white;fill-rule:nonzero;"/>
        <path d="M522.539,105.849C519.416,105.565 516.383,104.519 514.096,102.419C512.564,101.015 511.406,99.14 511.114,97.085C510.823,95.038 511.474,92.811 513.005,91.414C515.68,88.985 519.805,89.68 523.383,90.076C529.713,90.786 536.184,90.091 542.251,88.148C545.322,87.169 548.304,85.869 551.465,85.204C554.618,84.531 558.07,84.554 560.894,86.116C563.719,87.67 565.677,91.055 564.854,94.178C569.428,93.528 574.143,95.919 576.817,99.678C579.5,103.436 580.263,108.353 579.455,112.896C578.648,117.446 576.385,121.638 573.508,125.247C571.64,127.593 569.51,129.723 567.754,132.159C566.521,133.87 565.468,135.775 564.93,137.8L563.301,131.979C564.952,130.911 566.305,129.387 567.156,127.616C568.277,125.299 568.531,122.587 567.866,120.114C567.433,118.478 566.432,116.804 564.787,116.385C563.532,116.064 562.157,116.594 561.261,117.536C560.52,118.328 560.095,119.352 559.9,120.42C557.733,119.539 556.12,117.506 555.096,115.361C553.937,112.933 553.348,110.258 552.271,107.792C551.188,105.319 549.447,102.935 546.906,102.039C544.477,101.187 541.81,101.844 539.352,102.584C535.115,103.862 530.916,105.416 526.508,105.834C525.199,105.961 523.862,105.976 522.539,105.849Z" style="fill:rgb(17,23,50);fill-rule:nonzero;"/>
        <path d="M555.911,135.864C554.433,142.374 549.518,147.644 543.135,149.587C542.675,149.728 542.911,150.437 543.372,150.296C548.473,148.743 552.784,145.106 555.133,140.312C555.802,138.945 556.306,137.5 556.643,136.017C556.749,135.547 556.018,135.395 555.911,135.864Z" style="fill:rgb(17,23,50);fill-rule:nonzero;"/>
        <path d="M537.244,133.21C535.074,133.193 532.905,133.176 530.736,133.158C531.06,127.909 531.606,122.674 532.377,117.471C532.447,116.998 531.716,116.842 531.645,117.318C530.851,122.688 530.293,128.091 529.969,133.51C529.959,133.67 530.039,133.767 530.148,133.812C530.21,133.863 530.285,133.9 530.385,133.901C532.686,133.919 534.989,133.938 537.291,133.956C537.771,133.96 537.724,133.214 537.244,133.21Z" style="fill:rgb(17,23,50);fill-rule:nonzero;"/>
        <path d="M554.328,128.757C554.328,131.657 551.977,134.008 549.078,134.008C546.178,134.008 543.827,131.657 543.827,128.757C543.827,125.857 546.178,123.507 549.078,123.507C551.977,123.507 554.328,125.857 554.328,128.757Z" style="fill:rgb(246,150,150);fill-rule:nonzero;"/>
        <path d="M538.365,120.149C538.365,121.773 539.435,123.09 540.754,123.09C542.073,123.09 543.143,121.773 543.143,120.149C543.143,118.524 542.073,117.207 540.754,117.207C539.435,117.207 538.365,118.524 538.365,120.149Z" style="fill:rgb(17,23,50);fill-rule:nonzero;"/>
        <path d="M523.703,120.149C523.703,121.773 524.772,123.09 526.092,123.09C527.411,123.09 528.48,121.773 528.48,120.149C528.48,118.524 527.411,117.207 526.092,117.207C524.772,117.207 523.703,118.524 523.703,120.149Z" style="fill:rgb(17,23,50);fill-rule:nonzero;"/>
        <path d="M523.927,112.102C525.397,111.892 526.892,111.803 528.376,111.851C529.158,111.876 529.858,112.651 529.774,113.437C529.685,114.262 529.025,114.861 528.188,114.834C527.442,114.811 526.697,114.827 525.952,114.873C525.479,114.912 525.008,114.96 524.538,115.027C524.143,115.083 523.755,115.039 523.414,114.815C523.107,114.614 522.828,114.238 522.768,113.87C522.646,113.113 523.098,112.22 523.927,112.102Z" style="fill:rgb(17,23,50);fill-rule:nonzero;"/>
        <path d="M542.44,112.102C540.97,111.892 539.476,111.803 537.991,111.851C537.209,111.876 536.509,112.651 536.594,113.437C536.682,114.262 537.342,114.861 538.18,114.834C538.925,114.811 539.671,114.827 540.415,114.873C540.888,114.912 541.359,114.96 541.829,115.027C542.225,115.083 542.612,115.039 542.953,114.815C543.26,114.614 543.538,114.238 543.598,113.87C543.721,113.113 543.269,112.22 542.44,112.102Z" style="fill:rgb(17,23,50);fill-rule:nonzero;"/>
        <path d="M461.648,191.294C460.266,190.771 458.951,190.069 457.748,189.217C457.24,188.858 456.739,188.462 456.41,187.932C456.074,187.409 455.925,186.736 456.148,186.153C456.381,185.585 457.038,185.167 457.621,185.339C457.21,185.077 456.829,184.763 456.53,184.375C456.156,183.889 455.925,183.261 456.015,182.649C456.097,182.073 456.455,181.565 456.903,181.191C457.329,180.826 457.83,180.571 458.331,180.31C458.084,179.652 458.428,178.868 458.974,178.427C459.541,177.964 460.281,177.777 460.998,177.672C464.458,177.149 467.955,178.008 471.34,178.875C475.614,179.966 480.016,181.139 483.505,183.829L483.759,183.747C482.952,181.251 482.429,178.659 482.197,176.043C482.152,175.595 482.145,175.087 482.451,174.766C482.765,174.437 483.303,174.422 483.714,174.616C484.117,174.811 484.424,175.162 484.715,175.505C489.026,180.691 492.202,186.818 493.958,193.327L494.168,193.483L485.119,205.984L484.932,205.85C479.343,202.435 473.327,199.708 467.081,197.743C464.854,197.048 462.545,196.42 460.67,195.03C459.9,194.462 459.16,193.528 459.496,192.632C459.803,191.832 460.767,191.563 461.603,191.399L461.648,191.294Z" style="fill:rgb(247,170,171);fill-rule:nonzero;"/>
        <path d="M473.585,184.208C469.189,181.811 464.331,180.314 459.348,179.831C458.874,179.785 458.716,180.516 459.194,180.562C464.118,181.04 468.9,182.504 473.243,184.873C473.666,185.104 474.007,184.438 473.585,184.208Z" style="fill:rgb(17,23,50);fill-rule:nonzero;"/>
        <path d="M471.948,188.685C467.42,187.233 462.836,185.965 458.206,184.881C457.737,184.771 457.585,185.503 458.053,185.613C462.683,186.696 467.267,187.965 471.795,189.416C472.253,189.563 472.402,188.83 471.948,188.685Z" style="fill:rgb(17,23,50);fill-rule:nonzero;"/>
        <path d="M470.603,193.292C467.874,192.402 465.105,191.646 462.304,191.028C461.834,190.924 461.681,191.655 462.151,191.759C464.953,192.378 467.722,193.133 470.449,194.023C470.906,194.172 471.055,193.44 470.603,193.292Z" style="fill:rgb(17,23,50);fill-rule:nonzero;"/>
        <path d="M475.348,182.184C473.44,185.139 471.902,188.305 470.736,191.623C470.578,192.075 471.311,192.224 471.468,191.776C472.61,188.525 474.144,185.42 476.012,182.526C476.272,182.122 475.605,181.783 475.348,182.184Z" style="fill:rgb(17,23,50);fill-rule:nonzero;"/>
        <path d="M565.127,114.799L559.83,114.799C559.83,114.799 559.836,88.928 539.58,88.928C539.58,88.928 561.389,81.426 565.127,114.799Z" style="fill:rgb(150,168,176);fill-rule:nonzero;"/>
        <path d="M555.912,122.935C555.912,129.503 559.463,134.827 563.844,134.827C568.224,134.827 571.774,129.503 571.774,122.935C571.774,116.367 568.224,111.043 563.844,111.043C559.463,111.043 555.912,116.367 555.912,122.935Z" style="fill:rgb(24,170,215);fill-rule:nonzero;"/>
        <path d="M563.844,111.043C562.523,110.801 561.081,111.193 559.884,111.933C558.686,112.688 557.702,113.756 556.962,114.948C555.456,117.337 554.82,120.164 554.792,122.935C554.817,125.707 555.453,128.534 556.959,130.924C557.7,132.116 558.685,133.184 559.883,133.94C561.08,134.679 562.522,135.071 563.844,134.827C562.531,134.562 561.423,133.928 560.555,133.068C559.67,132.227 559.011,131.18 558.491,130.081C557.48,127.852 557.059,125.388 557.033,122.935C557.055,120.482 557.477,118.018 558.488,115.789C559.009,114.689 559.668,113.642 560.553,112.799C561.422,111.941 562.531,111.307 563.844,111.043Z" style="fill:rgb(150,168,176);fill-rule:nonzero;"/>
        <path d="M562.375,122.319C562.375,126.25 564.56,129.437 567.257,129.437C569.952,129.437 572.138,126.25 572.138,122.319C572.138,118.389 569.952,115.202 567.257,115.202C564.56,115.202 562.375,118.389 562.375,122.319Z" style="fill:rgb(150,168,176);fill-rule:nonzero;"/>
        <path d="M562.947,112.834C563.287,112.493 562.731,111.994 562.393,112.333C558.716,116.019 557.192,121.42 558.406,126.482C558.761,127.959 559.346,129.369 560.119,130.675C560.365,131.089 560.989,130.679 560.744,130.266C559.077,127.452 558.387,124.081 558.88,120.841C559.342,117.813 560.787,115 562.947,112.834Z" style="fill:rgb(17,23,50);fill-rule:nonzero;"/>
        <path d="M532.905,326.465L583.336,326.465C598.412,326.465 611.041,315.055 612.566,300.058L617.358,252.962C617.358,252.962 532.905,234.998 532.905,326.465Z" style="fill:rgb(255,204,0);fill-rule:nonzero;"/>
        <path d="M561.501,265.979C555.029,270.785 549.466,276.753 545.122,283.544C540.45,290.849 537.272,299.085 535.783,307.626C534.921,312.569 534.625,317.607 534.896,322.617C534.931,323.259 535.929,323.198 535.894,322.554C535.42,313.773 536.723,304.904 539.746,296.643C542.533,289.026 546.764,281.969 552.142,275.9C555.121,272.539 558.442,269.493 562.048,266.816C562.563,266.434 562.018,265.595 561.501,265.979Z" style="fill:rgb(17,23,50);fill-rule:nonzero;"/>
        <path d="M563.675,264.369C563.032,264.369 563.096,265.368 563.738,265.368C564.381,265.368 564.317,264.369 563.675,264.369Z" style="fill:rgb(17,23,50);fill-rule:nonzero;"/>
        <path d="M565.714,262.238C565.07,262.238 565.134,263.236 565.776,263.236C566.42,263.236 566.356,262.238 565.714,262.238Z" style="fill:rgb(17,23,50);fill-rule:nonzero;"/>
        <path d="M566.177,264.833C565.534,264.833 565.598,265.831 566.24,265.831C566.883,265.831 566.819,264.833 566.177,264.833Z" style="fill:rgb(17,23,50);fill-rule:nonzero;"/>
        <path d="M395.991,263.558L410.448,180.771L433.827,173.987L432.993,171.117L407.819,178.422L393.046,263.05L395.991,263.558Z" style="fill:rgb(100,112,128);fill-rule:nonzero;"/>
        <rect x="378.316" y="259.354" width="33.444" height="6.267" style="fill:rgb(100,112,128);fill-rule:nonzero;"/>
        <path d="M403.889,179.695C403.889,182.649 406.283,185.044 409.237,185.044C412.191,185.044 414.586,182.649 414.586,179.695C414.586,176.741 412.191,174.346 409.237,174.346C406.283,174.346 403.889,176.741 403.889,179.695Z" style="fill:rgb(100,112,128);fill-rule:nonzero;"/>
        <path d="M406.433,179.799C406.433,181.376 407.712,182.655 409.289,182.655C410.866,182.655 412.145,181.376 412.145,179.799C412.145,178.222 410.866,176.943 409.289,176.943C407.712,176.943 406.433,178.222 406.433,179.799Z" style="fill:rgb(251,175,83);fill-rule:nonzero;"/>
        <path d="M428.971,168.375L428.971,182.448C428.971,186.732 432.476,190.237 436.76,190.237L437.851,190.237C442.135,190.237 445.641,186.732 445.641,182.448L445.641,168.375L428.971,168.375Z" style="fill:rgb(17,23,50);fill-rule:nonzero;"/>
        <path d="M445.641,168.375L445.641,159.131C445.641,154.847 442.135,151.341 437.851,151.341L436.76,151.341C432.476,151.341 428.971,154.847 428.971,159.131L428.971,168.375L445.641,168.375Z" style="fill:rgb(175,189,204);fill-rule:nonzero;"/>
        <path d="M438.374,182.188C439.565,182.188 440.541,181.212 440.541,180.021L440.541,164.691C440.541,163.499 439.565,162.523 438.374,162.523C437.182,162.523 436.206,163.499 436.206,164.691L436.206,180.021C436.206,181.212 437.182,182.188 438.374,182.188Z" style="fill:rgb(100,112,128);fill-rule:nonzero;"/>
        <path d="M426.098,175.887L438.533,175.887C439.638,175.887 440.541,174.983 440.541,173.879C440.541,172.774 439.638,171.871 438.533,171.871L426.098,171.871C424.993,171.871 424.089,172.774 424.089,173.879C424.089,174.983 424.993,175.887 426.098,175.887Z" style="fill:rgb(100,112,128);fill-rule:nonzero;"/>
        <path d="M441.382,157.015C441.382,157.581 441.841,158.04 442.407,158.04C442.975,158.04 443.434,157.581 443.434,157.015C443.434,156.448 442.975,155.989 442.407,155.989C441.841,155.989 441.382,156.448 441.382,157.015Z" style="fill:rgb(17,23,50);fill-rule:nonzero;"/>
        <path d="M437.348,157.015C437.348,157.581 437.808,158.04 438.374,158.04C438.94,158.04 439.399,157.581 439.399,157.015C439.399,156.448 438.94,155.989 438.374,155.989C437.808,155.989 437.348,156.448 437.348,157.015Z" style="fill:rgb(17,23,50);fill-rule:nonzero;"/>
        <path d="M441.382,160.728C441.382,161.294 441.841,161.753 442.407,161.753C442.975,161.753 443.434,161.294 443.434,160.728C443.434,160.161 442.975,159.702 442.407,159.702C441.841,159.702 441.382,160.161 441.382,160.728Z" style="fill:rgb(17,23,50);fill-rule:nonzero;"/>
        <path d="M437.348,160.585C437.348,161.151 437.808,161.61 438.374,161.61C438.94,161.61 439.399,161.151 439.399,160.585C439.399,160.019 438.94,159.559 438.374,159.559C437.808,159.559 437.348,160.019 437.348,160.585Z" style="fill:rgb(17,23,50);fill-rule:nonzero;"/>
        <rect x="210.304" y="265.651" width="412.951" height="9.451" style="fill:rgb(17,23,50);fill-rule:nonzero;"/>
        <path d="M237.393,444.572L229.434,444.572L229.434,275.102L244.865,275.102L237.393,444.572Z" style="fill:rgb(17,23,50);fill-rule:nonzero;"/>
        <path d="M596.166,444.572L604.125,444.572L604.125,275.102L588.693,275.102L596.166,444.572Z" style="fill:rgb(17,23,50);fill-rule:nonzero;"/>
        <path d="M551.435,259.097L551.435,265.65L430.714,265.65L423.241,204.961L512.205,204.961L518.87,259.097L551.435,259.097Z" style="fill:rgb(150,168,176);fill-rule:nonzero;"/>
        <path d="M512.205,204.961L508.186,204.961L516.052,265.65L551.435,265.65L551.435,259.097L518.87,259.097L512.205,204.961Z" style="fill:rgb(120,145,153);fill-rule:nonzero;"/>
        <path d="M431.051,234.857C430.79,232.376 430.54,229.893 430.301,227.409C430.255,226.933 429.507,226.957 429.554,227.437C430.395,236.177 431.373,244.903 432.489,253.611C432.807,256.087 433.135,258.561 433.475,261.033C433.539,261.504 434.286,261.481 434.221,261.004C433.028,252.306 431.971,243.589 431.051,234.857Z" style="fill:rgb(17,23,50);fill-rule:nonzero;"/>
        <path d="M436.186,250.991C436.13,250.515 435.405,250.701 435.461,251.173C435.827,254.261 436.193,257.35 436.559,260.438C436.615,260.913 437.34,260.728 437.284,260.255C436.918,257.167 436.552,254.079 436.186,250.991Z" style="fill:rgb(17,23,50);fill-rule:nonzero;"/>
        <path d="M371.903,263.588L353.573,157.153L330.194,150.369L331.028,147.499L356.202,154.804L374.848,263.08L371.903,263.588Z" style="fill:rgb(100,112,128);fill-rule:nonzero;"/>
        <rect x="356.134" y="259.384" width="33.443" height="6.267" style="fill:rgb(100,112,128);fill-rule:nonzero;"/>
        <path d="M360.133,156.077C360.133,159.031 357.738,161.426 354.784,161.426C351.83,161.426 349.435,159.031 349.435,156.077C349.435,153.123 351.83,150.729 354.784,150.729C357.738,150.729 360.133,153.123 360.133,156.077Z" style="fill:rgb(100,112,128);fill-rule:nonzero;"/>
        <path d="M357.588,156.181C357.588,157.758 356.31,159.037 354.732,159.037C353.155,159.037 351.876,157.758 351.876,156.181C351.876,154.604 353.155,153.325 354.732,153.325C356.31,153.325 357.588,154.604 357.588,156.181Z" style="fill:rgb(251,175,83);fill-rule:nonzero;"/>
        <path d="M335.05,144.756L335.05,158.83C335.05,163.114 331.545,166.619 327.261,166.619L326.17,166.619C321.886,166.619 318.381,163.114 318.381,158.83L318.381,144.756L335.05,144.756Z" style="fill:rgb(17,23,50);fill-rule:nonzero;"/>
        <path d="M318.381,144.756L318.381,135.513C318.381,131.229 321.886,127.723 326.17,127.723L327.261,127.723C331.545,127.723 335.05,131.229 335.05,135.513L335.05,144.756L318.381,144.756Z" style="fill:rgb(175,189,204);fill-rule:nonzero;"/>
        <path d="M325.647,158.57C324.456,158.57 323.48,157.595 323.48,156.402L323.48,141.073C323.48,139.881 324.456,138.905 325.647,138.905C326.839,138.905 327.815,139.881 327.815,141.073L327.815,156.402C327.815,157.595 326.839,158.57 325.647,158.57Z" style="fill:rgb(100,112,128);fill-rule:nonzero;"/>
        <path d="M337.924,152.269L325.488,152.269C324.384,152.269 323.48,151.365 323.48,150.261C323.48,149.157 324.384,148.253 325.488,148.253L337.924,148.253C339.028,148.253 339.932,149.157 339.932,150.261C339.932,151.365 339.028,152.269 337.924,152.269Z" style="fill:rgb(100,112,128);fill-rule:nonzero;"/>
        <path d="M322.639,133.396C322.639,133.963 322.18,134.422 321.613,134.422C321.047,134.422 320.588,133.963 320.588,133.396C320.588,132.83 321.047,132.371 321.613,132.371C322.18,132.371 322.639,132.83 322.639,133.396Z" style="fill:rgb(17,23,50);fill-rule:nonzero;"/>
        <path d="M326.673,133.396C326.673,133.963 326.214,134.422 325.647,134.422C325.081,134.422 324.622,133.963 324.622,133.396C324.622,132.83 325.081,132.371 325.647,132.371C326.214,132.371 326.673,132.83 326.673,133.396Z" style="fill:rgb(17,23,50);fill-rule:nonzero;"/>
        <path d="M322.639,137.109C322.639,137.676 322.18,138.135 321.613,138.135C321.047,138.135 320.588,137.676 320.588,137.109C320.588,136.543 321.047,136.084 321.613,136.084C322.18,136.084 322.639,136.543 322.639,137.109Z" style="fill:rgb(17,23,50);fill-rule:nonzero;"/>
        <path d="M326.673,136.967C326.673,137.533 326.214,137.992 325.647,137.992C325.081,137.992 324.622,137.533 324.622,136.967C324.622,136.4 325.081,135.941 325.647,135.941C326.214,135.941 326.673,136.4 326.673,136.967Z" style="fill:rgb(17,23,50);fill-rule:nonzero;"/>
        <path d="M350.259,248.022C350.977,246.352 352.198,244.762 354.202,244.13C355.272,243.796 356.464,243.759 357.499,244.198C358.555,244.644 359.33,245.479 359.769,246.407C360.659,248.289 360.501,250.528 359.74,252.428C358.985,254.31 357.563,255.974 355.667,257.119C354.065,258.085 352.191,258.666 350.259,258.826L350.259,248.022ZM363.374,246.376C362.713,243.79 361.004,241.123 357.951,240.195C355.143,239.341 352.061,240.17 350.259,242.076L350.259,237.472L328.697,237.472L328.697,265.651L350.259,265.651L350.259,261.858C355.566,261.759 360.522,258.783 362.57,254.495C363.79,251.933 364.063,249.074 363.374,246.376Z" style="fill:rgb(255,204,0);fill-rule:nonzero;"/>
        <path d="M328.697,237.472L350.259,237.472C350.259,237.472 348.682,239.914 339.746,239.764C330.811,239.613 328.697,237.472 328.697,237.472Z" style="fill:rgb(17,23,50);fill-rule:nonzero;"/>
    </g>
</svg>
